999
dxfrw 0.6.3
  0
SECTION
  2
HEADER
  9
$ACADVER
  1
AC1021
  9
$DWGCODEPAGE
  3
ANSI_1252
  9
$INSBASE
 10
0
 20
0
 30
0
  9
$EXTMIN
 10
-32.99999999999994
 20
-5.684341886080801e-14
 30
0
  9
$EXTMAX
 10
168.0000000000001
 20
218
 30
0
  9
$LIMMIN
 10
0
 20
0
  9
$LIMMAX
 10
420
 20
297
  9
$ORTHOMODE
 70
    0
  9
$REGENMODE
 70
    1
  9
$FILLMODE
 70
    1
  9
$QTEXTMODE
 70
    0
  9
$MIRRTEXT
 70
    0
  9
$LTSCALE
 40
1
  9
$ATTMODE
 70
    0
  9
$TEXTSIZE
 40
2.5
  9
$TRACEWID
 40
15.68
  9
$TEXTSTYLE
  7
STANDARD
  9
$CLAYER
  8
body-right
  9
$CELTYPE
  6
BYLAYER
  9
$CECOLOR
 62
  256
  9
$CELTSCALE
 40
1
  9
$DISPSILH
 70
    0
  9
$DIMSCALE
 40
0.0393701
  9
$DIMASZ
 40
0.1
  9
$DIMEXO
 40
0.025
  9
$DIMDLI
 40
3.75
  9
$DIMRND
 40
0
  9
$DIMDLE
 40
0
  9
$DIMEXE
 40
0.05
  9
$DIMTP
 40
0
  9
$DIMTM
 40
0
  9
$DIMTXT
 40
0.1
  9
$DIMCEN
 40
2.5
  9
$DIMTSZ
 40
0
  9
$DIMTOL
 70
    0
  9
$DIMLIM
 70
    0
  9
$DIMTIH
 70
    0
  9
$DIMTOH
 70
    0
  9
$DIMSE1
 70
    0
  9
$DIMSE2
 70
    0
  9
$DIMTAD
 70
    1
  9
$DIMZIN
 70
    1
  9
$DIMBLK
  1

  9
$DIMASO
 70
    1
  9
$DIMSHO
 70
    1
  9
$DIMPOST
  1

  9
$DIMAPOST
  1

  9
$DIMALT
 70
    0
  9
$DIMALTD
 70
    3
  9
$DIMALTF
 40
0.03937
  9
$DIMLFAC
 40
0.0393701
  9
$DIMTOFL
 70
    1
  9
$DIMTVP
 40
0
  9
$DIMTIX
 70
    0
  9
$DIMSOXD
 70
    0
  9
$DIMSAH
 70
    0
  9
$DIMBLK1
  1

  9
$DIMBLK2
  1

  9
$DIMSTYLE
  2
STANDARD
  9
$DIMCLRD
 70
    0
  9
$DIMCLRE
 70
    0
  9
$DIMCLRT
 70
    0
  9
$DIMTFAC
 40
1
  9
$DIMGAP
 40
0.025
  9
$DIMJUST
 70
    0
  9
$DIMSD1
 70
    0
  9
$DIMSD2
 70
    0
  9
$DIMTOLJ
 70
    0
  9
$DIMTZIN
 70
    8
  9
$DIMALTZ
 70
    0
  9
$DIMALTTZ
 70
    0
  9
$DIMUPT
 70
    0
  9
$DIMDEC
 70
    4
  9
$DIMTDEC
 70
    2
  9
$DIMALTU
 70
    2
  9
$DIMALTTD
 70
    3
  9
$DIMTXSTY
  7
standard
  9
$DIMAUNIT
 70
    0
  9
$DIMADEC
 70
    2
  9
$DIMALTRND
 40
0
  9
$DIMAZIN
 70
    0
  9
$DIMDSEP
 70
    0
  9
$DIMATFIT
 70
    3
  9
$DIMFRAC
 70
    0
  9
$DIMLDRBLK
  1
STANDARD
  9
$DIMLUNIT
 70
    2
  9
$DIMLWD
 70
   -2
  9
$DIMLWE
 70
   -2
  9
$DIMTMOVE
 70
    0
  9
$DIMFXL
 40
0.04
  9
$DIMFXLON
 70
    0
  9
$DIMJOGANG
 40
0.7854
  9
$DIMTFILL
 70
    0
  9
$DIMTFILLCLR
 70
    0
  9
$DIMARCSYM
 70
    0
  9
$DIMLTYPE
  6

  9
$DIMLTEX1
  6

  9
$DIMLTEX2
  6

  9
$LUNITS
 70
    2
  9
$LUPREC
 70
    4
  9
$SKETCHINC
 40
1
  9
$FILLETRAD
 40
0
  9
$AUNITS
 70
    0
  9
$AUPREC
 70
    2
  9
$MENU
  1
.
  9
$ELEVATION
 40
0
  9
$PELEVATION
 40
0
  9
$THICKNESS
 40
0
  9
$LIMCHECK
 70
    0
  9
$CHAMFERA
 40
0
  9
$CHAMFERB
 40
0
  9
$CHAMFERC
 40
0
  9
$CHAMFERD
 40
0
  9
$SKPOLY
 70
    0
  9
$USRTIMER
 70
    1
  9
$ANGBASE
 50
0
  9
$ANGDIR
 70
    0
  9
$PDMODE
 70
   34
  9
$PDSIZE
 40
0
  9
$PLINEWID
 40
0
  9
$SPLFRAME
 70
    0
  9
$SPLINETYPE
 70
    2
  9
$SPLINESEGS
 70
    8
  9
$HANDSEED
  5
20000
  9
$SURFTAB1
 70
    6
  9
$SURFTAB2
 70
    6
  9
$SURFTYPE
 70
    6
  9
$SURFU
 70
    6
  9
$SURFV
 70
    6
  9
$UCSBASE
  2

  9
$UCSNAME
  2

  9
$UCSORG
 10
0
 20
0
 30
0
  9
$UCSXDIR
 10
1
 20
0
 30
0
  9
$UCSYDIR
 10
0
 20
1
 30
0
  9
$UCSORTHOREF
  2

  9
$UCSORTHOVIEW
 70
    0
  9
$UCSORGTOP
 10
0
 20
0
 30
0
  9
$UCSORGBOTTOM
 10
0
 20
0
 30
0
  9
$UCSORGLEFT
 10
0
 20
0
 30
0
  9
$UCSORGRIGHT
 10
0
 20
0
 30
0
  9
$UCSORGFRONT
 10
0
 20
0
 30
0
  9
$UCSORGBACK
 10
0
 20
0
 30
0
  9
$PUCSBASE
  2

  9
$PUCSNAME
  2

  9
$PUCSORG
 10
0
 20
0
 30
0
  9
$PUCSXDIR
 10
1
 20
0
 30
0
  9
$PUCSYDIR
 10
0
 20
1
 30
0
  9
$PUCSORTHOREF
  2

  9
$PUCSORTHOVIEW
 70
    0
  9
$PUCSORGTOP
 10
0
 20
0
 30
0
  9
$PUCSORGBOTTOM
 10
0
 20
0
 30
0
  9
$PUCSORGLEFT
 10
0
 20
0
 30
0
  9
$PUCSORGRIGHT
 10
0
 20
0
 30
0
  9
$PUCSORGFRONT
 10
0
 20
0
 30
0
  9
$PUCSORGBACK
 10
0
 20
0
 30
0
  9
$USERI1
 70
    0
  9
$USERI2
 70
    0
  9
$USERI3
 70
    0
  9
$USERI4
 70
    0
  9
$USERI5
 70
    0
  9
$USERR1
 40
0
  9
$USERR2
 40
0
  9
$USERR3
 40
0
  9
$USERR4
 40
0
  9
$USERR5
 40
0
  9
$WORLDVIEW
 70
    1
  9
$SHADEDGE
 70
    3
  9
$SHADEDIF
 70
   70
  9
$TILEMODE
 70
    1
  9
$MAXACTVP
 70
   64
  9
$PINSBASE
 10
0
 20
0
 30
0
  9
$PLIMCHECK
 70
    0
  9
$PEXTMIN
 10
0
 20
0
 30
0
  9
$PEXTMAX
 10
0
 20
0
 30
0
  9
$GRIDMODE
 70
    1
  9
$SNAPSTYLE
 70
    0
  9
$GRIDUNIT
 10
0
 20
0
  9
$PLIMMIN
 10
0
 20
0
  9
$PLIMMAX
 10
0.00050453
 20
0.00071355
  9
$UNITMODE
 70
    0
  9
$VISRETAIN
 70
    1
  9
$PLINEGEN
 70
    0
  9
$PSLTSCALE
 70
    1
  9
$TREEDEPTH
 70
 3020
  9
$CMLSTYLE
  2
Standard
  9
$CMLJUST
 70
    0
  9
$CMLSCALE
 40
20
  9
$PROXYGRAPHICS
 70
    1
  9
$MEASUREMENT
 70
    1
  9
$CELWEIGHT
370
   -1
  9
$ENDCAPS
280
    0
  9
$JOINSTYLE
280
    0
  9
$LWDISPLAY
290
    0
  9
$INSUNITS
 70
    4
  9
$HYPERLINKBASE
  1

  9
$STYLESHEET
  1

  9
$XEDIT
290
    1
  9
$CEPSNTYPE
380
    0
  9
$PSTYLEMODE
290
    1
  9
$EXTNAMES
290
    1
  9
$PSVPSCALE
 40
1
  9
$OLESTARTUP
290
    0
  9
$SORTENTS
280
  127
  9
$INDEXCTL
280
    0
  9
$HIDETEXT
280
    1
  9
$XCLIPFRAME
290
    0
  9
$HALOGAP
280
    0
  9
$OBSCOLOR
 70
  257
  9
$OBSLTYPE
280
    0
  9
$INTERSECTIONDISPLAY
280
    0
  9
$INTERSECTIONCOLOR
 70
  257
  9
$DIMASSOC
280
    1
  9
$PROJECTNAME
  1

  9
$CAMERADISPLAY
290
    0
  9
$LENSLENGTH
 40
50
  9
$CAMERAHEIGHT
 40
0
  9
$STEPSPERSEC
 40
2
  9
$STEPSIZE
 40
50
  9
$3DDWFPREC
 40
2
  9
$PSOLWIDTH
 40
5
  9
$PSOLHEIGHT
 40
80
  9
$LOFTANG1
 40
1.570796326794897
  9
$LOFTANG2
 40
1.570796326794897
  9
$LOFTMAG1
 40
0
  9
$LOFTMAG2
 40
0
  9
$LOFTPARAM
 70
    7
  9
$LOFTNORMALS
280
    1
  9
$LATITUDE
 40
1
  9
$LONGITUDE
 40
1
  9
$NORTHDIRECTION
 40
0
  9
$TIMEZONE
 70
-8000
  9
$LIGHTGLYPHDISPLAY
280
    1
  9
$TILEMODELIGHTSYNCH
280
    1
  9
$SOLIDHIST
280
    1
  9
$SHOWHIST
280
    1
  9
$DWFFRAME
280
    2
  9
$DGNFRAME
280
    0
  9
$REALWORLDSCALE
290
    1
  9
$INTERFERECOLOR
 62
    1
  9
$CSHADOW
280
    0
  9
$SHADOWPLANELOCATION
 40
0
  0
ENDSEC
  0
SECTION
  2
CLASSES
  0
ENDSEC
  0
SECTION
  2
TABLES
  0
TABLE
  2
VPORT
  5
8
330
0
100
AcDbSymbolTable
 70
    1
  0
VPORT
  5
31
330
2
100
AcDbSymbolTableRecord
100
AcDbViewportTableRecord
  2
*ACTIVE
 70
    0
 10
0
 20
0
 11
1
 21
1
 12
145.8167097222519
 22
117.6143374980341
 13
0
 23
0
 14
10
 24
10
 15
10
 25
10
 16
0
 26
0
 36
1
 17
0
 27
0
 37
0
 40
276.1743413364141
 41
1.602118003025719
 42
50
 43
0
 44
0
 50
0
 51
0
 71
    0
 72
  100
 73
    1
 74
    3
 75
    0
 76
    1
 77
    0
 78
    0
281
    0
 65
    1
110
0
120
0
130
0
111
1
121
0
131
0
112
0
122
1
132
0
 79
    0
146
0
348
10020
 60
    7
 61
    5
292
1
282
    1
141
0
142
0
 63
  250
421
3358443
  0
ENDTAB
  0
TABLE
  2
LTYPE
  5
5
330
0
100
AcDbSymbolTable
 70
    4
  0
LTYPE
  5
14
330
5
100
AcDbSymbolTableRecord
100
AcDbLinetypeTableRecord
  2
ByBlock
 70
    0
  3

 72
   65
 73
    0
 40
0
  0
LTYPE
  5
15
330
5
100
AcDbSymbolTableRecord
100
AcDbLinetypeTableRecord
  2
ByLayer
 70
    0
  3

 72
   65
 73
    0
 40
0
  0
LTYPE
  5
16
330
5
100
AcDbSymbolTableRecord
100
AcDbLinetypeTableRecord
  2
Continuous
 70
    0
  3
Solid line
 72
   65
 73
    0
 40
0
  0
LTYPE
  5
32
330
5
100
AcDbSymbolTableRecord
100
AcDbLinetypeTableRecord
  2
DOT
 70
    0
  3
Dot . . . . . . . . . . . . . . . . . . . . . .
 72
   65
 73
    2
 40
6.35
 49
0
 74
    0
 49
-6.35
 74
    0
  0
LTYPE
  5
33
330
5
100
AcDbSymbolTableRecord
100
AcDbLinetypeTableRecord
  2
DOTTINY
 70
    0
  3
Dot (.15x) .....................................
 72
   65
 73
    2
 40
0.9525
 49
0
 74
    0
 49
-0.9525
 74
    0
  0
LTYPE
  5
34
330
5
100
AcDbSymbolTableRecord
100
AcDbLinetypeTableRecord
  2
DOT2
 70
    0
  3
Dot (.5x) .....................................
 72
   65
 73
    2
 40
3.175
 49
0
 74
    0
 49
-3.175
 74
    0
  0
LTYPE
  5
35
330
5
100
AcDbSymbolTableRecord
100
AcDbLinetypeTableRecord
  2
DOTX2
 70
    0
  3
Dot (2x) .  .  .  .  .  .  .  .  .  .  .  .  .
 72
   65
 73
    2
 40
12.7
 49
0
 74
    0
 49
-12.7
 74
    0
  0
LTYPE
  5
36
330
5
100
AcDbSymbolTableRecord
100
AcDbLinetypeTableRecord
  2
DASHED
 70
    0
  3
Dashed _ _ _ _ _ _ _ _ _ _ _ _ _ _ _ _ _
 72
   65
 73
    2
 40
19.05
 49
12.7
 74
    0
 49
-6.35
 74
    0
  0
LTYPE
  5
37
330
5
100
AcDbSymbolTableRecord
100
AcDbLinetypeTableRecord
  2
DASHEDTINY
 70
    0
  3
Dashed (.15x) _ _ _ _ _ _ _ _ _ _ _ _ _ _ _ _ _
 72
   65
 73
    2
 40
2.8575
 49
1.905
 74
    0
 49
-0.9525
 74
    0
  0
LTYPE
  5
38
330
5
100
AcDbSymbolTableRecord
100
AcDbLinetypeTableRecord
  2
DASHED2
 70
    0
  3
Dashed (.5x) _ _ _ _ _ _ _ _ _ _ _ _ _ _ _ _ _
 72
   65
 73
    2
 40
9.524999999999999
 49
6.35
 74
    0
 49
-3.175
 74
    0
  0
LTYPE
  5
39
330
5
100
AcDbSymbolTableRecord
100
AcDbLinetypeTableRecord
  2
DASHEDX2
 70
    0
  3
Dashed (2x) ____  ____  ____  ____  ____  ___
 72
   65
 73
    2
 40
38.09999999999999
 49
25.4
 74
    0
 49
-12.7
 74
    0
  0
LTYPE
  5
3A
330
5
100
AcDbSymbolTableRecord
100
AcDbLinetypeTableRecord
  2
DASHDOT
 70
    0
  3
Dash dot __ . __ . __ . __ . __ . __ . __ . __
 72
   65
 73
    4
 40
25.4
 49
12.7
 74
    0
 49
-6.35
 74
    0
 49
0
 74
    0
 49
-6.35
 74
    0
  0
LTYPE
  5
3B
330
5
100
AcDbSymbolTableRecord
100
AcDbLinetypeTableRecord
  2
DASHDOTTINY
 70
    0
  3
Dash dot (.15x) _._._._._._._._._._._._._._._.
 72
   65
 73
    4
 40
3.81
 49
1.905
 74
    0
 49
-0.9525
 74
    0
 49
0
 74
    0
 49
-0.9525
 74
    0
  0
LTYPE
  5
3C
330
5
100
AcDbSymbolTableRecord
100
AcDbLinetypeTableRecord
  2
DASHDOT2
 70
    0
  3
Dash dot (.5x) _._._._._._._._._._._._._._._.
 72
   65
 73
    4
 40
12.7
 49
6.35
 74
    0
 49
-3.175
 74
    0
 49
0
 74
    0
 49
-3.175
 74
    0
  0
LTYPE
  5
3D
330
5
100
AcDbSymbolTableRecord
100
AcDbLinetypeTableRecord
  2
DASHDOTX2
 70
    0
  3
Dash dot (2x) ____  .  ____  .  ____  .  ___
 72
   65
 73
    4
 40
50.8
 49
25.4
 74
    0
 49
-12.7
 74
    0
 49
0
 74
    0
 49
-12.7
 74
    0
  0
LTYPE
  5
3E
330
5
100
AcDbSymbolTableRecord
100
AcDbLinetypeTableRecord
  2
DIVIDE
 70
    0
  3
Divide ____ . . ____ . . ____ . . ____ . . ____
 72
   65
 73
    6
 40
31.75
 49
12.7
 74
    0
 49
-6.35
 74
    0
 49
0
 74
    0
 49
-6.35
 74
    0
 49
0
 74
    0
 49
-6.35
 74
    0
  0
LTYPE
  5
3F
330
5
100
AcDbSymbolTableRecord
100
AcDbLinetypeTableRecord
  2
DIVIDETINY
 70
    0
  3
Divide (.15x) __..__..__..__..__..__..__..__.._
 72
   65
 73
    6
 40
4.7625
 49
1.905
 74
    0
 49
-0.9525
 74
    0
 49
0
 74
    0
 49
-0.9525
 74
    0
 49
0
 74
    0
 49
-0.9525
 74
    0
  0
LTYPE
  5
40
330
5
100
AcDbSymbolTableRecord
100
AcDbLinetypeTableRecord
  2
DIVIDE2
 70
    0
  3
Divide (.5x) __..__..__..__..__..__..__..__.._
 72
   65
 73
    6
 40
15.875
 49
6.35
 74
    0
 49
-3.175
 74
    0
 49
0
 74
    0
 49
-3.175
 74
    0
 49
0
 74
    0
 49
-3.175
 74
    0
  0
LTYPE
  5
41
330
5
100
AcDbSymbolTableRecord
100
AcDbLinetypeTableRecord
  2
DIVIDEX2
 70
    0
  3
Divide (2x) ________  .  .  ________  .  .  _
 72
   65
 73
    6
 40
63.5
 49
25.4
 74
    0
 49
-12.7
 74
    0
 49
0
 74
    0
 49
-12.7
 74
    0
 49
0
 74
    0
 49
-12.7
 74
    0
  0
LTYPE
  5
42
330
5
100
AcDbSymbolTableRecord
100
AcDbLinetypeTableRecord
  2
BORDER
 70
    0
  3
Border __ __ . __ __ . __ __ . __ __ . __ __ .
 72
   65
 73
    6
 40
44.45
 49
12.7
 74
    0
 49
-6.35
 74
    0
 49
12.7
 74
    0
 49
-6.35
 74
    0
 49
0
 74
    0
 49
-6.35
 74
    0
  0
LTYPE
  5
43
330
5
100
AcDbSymbolTableRecord
100
AcDbLinetypeTableRecord
  2
BORDERTINY
 70
    0
  3
Border (.15x) __.__.__.__.__.__.__.__.__.__.__.
 72
   65
 73
    6
 40
6.6675
 49
1.905
 74
    0
 49
-0.9525
 74
    0
 49
1.905
 74
    0
 49
-0.9525
 74
    0
 49
0
 74
    0
 49
-0.9525
 74
    0
  0
LTYPE
  5
44
330
5
100
AcDbSymbolTableRecord
100
AcDbLinetypeTableRecord
  2
BORDER2
 70
    0
  3
Border (.5x) __.__.__.__.__.__.__.__.__.__.__.
 72
   65
 73
    6
 40
22.225
 49
6.35
 74
    0
 49
-3.175
 74
    0
 49
6.35
 74
    0
 49
-3.175
 74
    0
 49
0
 74
    0
 49
-3.175
 74
    0
  0
LTYPE
  5
45
330
5
100
AcDbSymbolTableRecord
100
AcDbLinetypeTableRecord
  2
BORDERX2
 70
    0
  3
Border (2x) ____  ____  .  ____  ____  .  ___
 72
   65
 73
    6
 40
88.89999999999999
 49
25.4
 74
    0
 49
-12.7
 74
    0
 49
25.4
 74
    0
 49
-12.7
 74
    0
 49
0
 74
    0
 49
-12.7
 74
    0
  0
LTYPE
  5
46
330
5
100
AcDbSymbolTableRecord
100
AcDbLinetypeTableRecord
  2
CENTER
 70
    0
  3
Center ____ _ ____ _ ____ _ ____ _ ____ _ ____
 72
   65
 73
    4
 40
50.8
 49
31.75
 74
    0
 49
-6.35
 74
    0
 49
6.35
 74
    0
 49
-6.35
 74
    0
  0
LTYPE
  5
47
330
5
100
AcDbSymbolTableRecord
100
AcDbLinetypeTableRecord
  2
CENTERTINY
 70
    0
  3
Center (.15x) ___ _ ___ _ ___ _ ___ _ ___ _ ___
 72
   65
 73
    4
 40
7.619999999999999
 49
4.7625
 74
    0
 49
-0.9525
 74
    0
 49
0.9525
 74
    0
 49
-0.9525
 74
    0
  0
LTYPE
  5
48
330
5
100
AcDbSymbolTableRecord
100
AcDbLinetypeTableRecord
  2
CENTER2
 70
    0
  3
Center (.5x) ___ _ ___ _ ___ _ ___ _ ___ _ ___
 72
   65
 73
    4
 40
28.575
 49
19.05
 74
    0
 49
-3.175
 74
    0
 49
3.175
 74
    0
 49
-3.175
 74
    0
  0
LTYPE
  5
49
330
5
100
AcDbSymbolTableRecord
100
AcDbLinetypeTableRecord
  2
CENTERX2
 70
    0
  3
Center (2x) ________  __  ________  __  _____
 72
   65
 73
    4
 40
101.6
 49
63.5
 74
    0
 49
-12.7
 74
    0
 49
12.7
 74
    0
 49
-12.7
 74
    0
  0
ENDTAB
  0
TABLE
  2
LAYER
  5
2
330
0
100
AcDbSymbolTable
 70
    1
  0
LAYER
  5
10
330
2
100
AcDbSymbolTableRecord
100
AcDbLayerTableRecord
  2
0
 70
    4
 62
    7
  6
CONTINUOUS
370
    0
390
F
  0
LAYER
  5
4A
330
2
100
AcDbSymbolTableRecord
100
AcDbLayerTableRecord
  2
body-back
 70
    4
 62
    7
  6
CONTINUOUS
370
    0
390
F
  0
LAYER
  5
4B
330
2
100
AcDbSymbolTableRecord
100
AcDbLayerTableRecord
  2
body-bottom
 70
    4
 62
    7
  6
CONTINUOUS
370
    0
390
F
  0
LAYER
  5
4C
330
2
100
AcDbSymbolTableRecord
100
AcDbLayerTableRecord
  2
body-electronics
 70
    4
 62
    7
  6
CONTINUOUS
370
    0
390
F
  0
LAYER
  5
4D
330
2
100
AcDbSymbolTableRecord
100
AcDbLayerTableRecord
  2
body-front
 70
    4
 62
    7
  6
CONTINUOUS
370
    0
390
F
  0
LAYER
  5
4E
330
2
100
AcDbSymbolTableRecord
100
AcDbLayerTableRecord
  2
body-left
 70
    4
 62
    7
  6
CONTINUOUS
370
    0
390
F
  0
LAYER
  5
4F
330
2
100
AcDbSymbolTableRecord
100
AcDbLayerTableRecord
  2
body-right
 70
    4
 62
    7
  6
CONTINUOUS
370
    0
390
F
  0
LAYER
  5
50
330
2
100
AcDbSymbolTableRecord
100
AcDbLayerTableRecord
  2
body-top
 70
    4
 62
    7
  6
CONTINUOUS
370
    0
390
F
  0
ENDTAB
  0
TABLE
  2
STYLE
  5
3
330
0
100
AcDbSymbolTable
 70
    3
  0
STYLE
  5
51
330
2
100
AcDbSymbolTableRecord
100
AcDbTextStyleTableRecord
  2
Standard
 70
    0
 40
0
 41
1
 50
0
 71
    0
 42
1
  3
txt
  4

  0
ENDTAB
  0
TABLE
  2
VIEW
  5
6
330
0
100
AcDbSymbolTable
 70
    0
  0
ENDTAB
  0
TABLE
  2
UCS
  5
7
330
0
100
AcDbSymbolTable
 70
    0
  0
ENDTAB
  0
TABLE
  2
APPID
  5
9
330
0
100
AcDbSymbolTable
 70
    1
  0
APPID
  5
12
330
9
100
AcDbSymbolTableRecord
100
AcDbRegAppTableRecord
  2
ACAD
 70
    0
  0
APPID
  5
52
330
9
100
AcDbSymbolTableRecord
100
AcDbRegAppTableRecord
  2
LibreCad
 70
    0
  0
ENDTAB
  0
TABLE
  2
DIMSTYLE
  5
A
330
0
100
AcDbSymbolTable
 70
    1
100
AcDbDimStyleTable
 71
    1
  0
DIMSTYLE
105
53
330
A
100
AcDbSymbolTableRecord
100
AcDbDimStyleTableRecord
  2
Standard
 70
    0
 40
0.0393701
 41
0.1
 42
0.025
 43
0.38
 44
0.05
 45
0
 46
0
 47
0
 48
0
 49
0.04
140
0.1
141
0.09
142
0
143
25.4
144
0.0393701
145
0
146
1
147
0.025
148
0
 71
    0
 72
    0
 73
    0
 74
    1
 75
    0
 76
    0
 77
    0
 78
    1
 79
    0
170
    0
171
    2
172
    0
173
    0
174
    0
175
    0
176
    0
177
    0
178
    0
179
    2
271
    4
272
    4
273
    2
274
    2
275
    0
276
    0
277
    2
278
    0
279
    0
280
    0
281
    0
282
    0
283
    1
284
    0
285
    0
286
    0
288
    0
289
    3
340
standard
341

371
   -2
372
   -2
  0
ENDTAB
  0
TABLE
  2
BLOCK_RECORD
  5
1
330
0
100
AcDbSymbolTable
 70
    2
  0
BLOCK_RECORD
  5
1F
330
1
100
AcDbSymbolTableRecord
100
AcDbBlockTableRecord
  2
*Model_Space
 70
    0
280
    1
281
    0
  0
BLOCK_RECORD
  5
1E
330
1
100
AcDbSymbolTableRecord
100
AcDbBlockTableRecord
  2
*Paper_Space
 70
    0
280
    1
281
    0
  0
ENDTAB
  0
ENDSEC
  0
SECTION
  2
BLOCKS
  0
BLOCK
  5
20
330
1F
100
AcDbEntity
  8
0
100
AcDbBlockBegin
  2
*Model_Space
 70
    0
 10
0
 20
0
 30
0
  3
*Model_Space
  1

  0
ENDBLK
  5
21
330
1F
100
AcDbEntity
  8
0
100
AcDbBlockEnd
  0
BLOCK
  5
1C
330
1B
100
AcDbEntity
  8
0
100
AcDbBlockBegin
  2
*Paper_Space
 70
    0
 10
0
 20
0
 30
0
  3
*Paper_Space
  1

  0
ENDBLK
  5
1D
330
1F
100
AcDbEntity
  8
0
100
AcDbBlockEnd
  0
ENDSEC
  0
SECTION
  2
ENTITIES
  0
LINE
  5
54
100
AcDbEntity
  8
body-bottom
  6
ByLayer
 62
    5
370
   -1
100
AcDbLine
 10
132.0000000000001
 20
124.9999999999999
 11
132.0000000000001
 21
139.9999999999999
  0
LINE
  5
55
100
AcDbEntity
  8
body-bottom
  6
ByLayer
 62
    5
370
   -1
100
AcDbLine
 10
132.0000000000001
 20
139.9999999999999
 11
135.0000000000001
 21
139.9999999999999
  0
LINE
  5
56
100
AcDbEntity
  8
body-bottom
  6
ByLayer
 62
    5
370
   -1
100
AcDbLine
 10
135.0000000000001
 20
139.9999999999999
 11
135.0000000000001
 21
154.9999999999999
  0
LINE
  5
57
100
AcDbEntity
  8
body-bottom
  6
ByLayer
 62
    5
370
   -1
100
AcDbLine
 10
135.0000000000001
 20
154.9999999999999
 11
132.0000000000001
 21
154.9999999999999
  0
LINE
  5
58
100
AcDbEntity
  8
body-bottom
  6
ByLayer
 62
    5
370
   -1
100
AcDbLine
 10
132.0000000000001
 20
154.9999999999999
 11
132.0000000000001
 21
169.9999999999999
  0
LINE
  5
59
100
AcDbEntity
  8
body-bottom
  6
ByLayer
 62
    5
370
   -1
100
AcDbLine
 10
132.0000000000001
 20
169.9999999999999
 11
135.0000000000001
 21
169.9999999999999
  0
LINE
  5
5A
100
AcDbEntity
  8
body-bottom
  6
ByLayer
 62
    5
370
   -1
100
AcDbLine
 10
132.0000000000001
 20
125
 11
135.0000000000001
 21
125
  0
CIRCLE
  5
5B
100
AcDbEntity
  8
body-bottom
  6
ByLayer
 62
    5
370
   -1
100
AcDbCircle
 10
11.50000000000006
 20
141.5000000000002
 40
1.5
  0
CIRCLE
  5
5C
100
AcDbEntity
  8
body-bottom
  6
ByLayer
 62
    5
370
   -1
100
AcDbCircle
 10
69.50000000000009
 20
141.5000000000001
 40
1.5
  0
CIRCLE
  5
5D
100
AcDbEntity
  8
body-bottom
  6
ByLayer
 62
    5
370
   -1
100
AcDbCircle
 10
11.50000000000006
 20
118.5000000000002
 40
1.5
  0
CIRCLE
  5
5E
100
AcDbEntity
  8
body-bottom
  6
ByLayer
 62
    5
370
   -1
100
AcDbCircle
 10
69.50000000000009
 20
118.5000000000001
 40
1.5
  0
LINE
  5
5F
100
AcDbEntity
  8
body-bottom
  6
ByLayer
 62
    5
370
   -1
100
AcDbLine
 10
3.000000000000057
 20
125
 11
3.000000000000057
 21
140
  0
LINE
  5
60
100
AcDbEntity
  8
body-bottom
  6
ByLayer
 62
    5
370
   -1
100
AcDbLine
 10
3.000000000000057
 20
140
 11
5.684341886080801e-14
 21
140
  0
LINE
  5
61
100
AcDbEntity
  8
body-bottom
  6
ByLayer
 62
    5
370
   -1
100
AcDbLine
 10
5.684341886080801e-14
 20
140
 11
5.684341886080801e-14
 21
155
  0
LINE
  5
62
100
AcDbEntity
  8
body-bottom
  6
ByLayer
 62
    5
370
   -1
100
AcDbLine
 10
5.684341886080801e-14
 20
155
 11
3.000000000000057
 21
155
  0
LINE
  5
63
100
AcDbEntity
  8
body-bottom
  6
ByLayer
 62
    5
370
   -1
100
AcDbLine
 10
3.000000000000057
 20
155
 11
3.000000000000057
 21
170
  0
LINE
  5
64
100
AcDbEntity
  8
body-bottom
  6
ByLayer
 62
    5
370
   -1
100
AcDbLine
 10
3.000000000000057
 20
170
 11
5.684341886080801e-14
 21
170
  0
LINE
  5
65
100
AcDbEntity
  8
body-bottom
  6
ByLayer
 62
    5
370
   -1
100
AcDbLine
 10
3.000000000000057
 20
125
 11
5.684341886080801e-14
 21
125
  0
LINE
  5
66
100
AcDbEntity
  8
body-bottom
  6
CONTINUOUS
 62
    5
370
   -1
100
AcDbLine
 10
135.0000000000001
 20
184.9999999999999
 11
135.0000000000001
 21
169.9999999999999
  0
LINE
  5
67
100
AcDbEntity
  8
body-bottom
  6
CONTINUOUS
 62
    5
370
   -1
100
AcDbLine
 10
135.0000000000001
 20
125
 11
135.0000000000001
 21
109.9999999999999
  0
LINE
  5
68
100
AcDbEntity
  8
body-bottom
  6
ByLayer
 62
    5
370
   -1
100
AcDbLine
 10
15.00000000000011
 20
185
 11
15.00000000000006
 21
182
  0
LINE
  5
69
100
AcDbEntity
  8
body-bottom
  6
ByLayer
 62
    5
370
   -1
100
AcDbLine
 10
15.00000000000006
 20
182
 11
30.00000000000009
 21
182
  0
LINE
  5
6A
100
AcDbEntity
  8
body-bottom
  6
ByLayer
 62
    5
370
   -1
100
AcDbLine
 10
30.00000000000009
 20
182
 11
30.00000000000009
 21
185
  0
LINE
  5
6B
100
AcDbEntity
  8
body-bottom
  6
ByLayer
 62
    5
370
   -1
100
AcDbLine
 10
30.00000000000009
 20
185
 11
45.00000000000009
 21
185
  0
LINE
  5
6C
100
AcDbEntity
  8
body-bottom
  6
ByLayer
 62
    5
370
   -1
100
AcDbLine
 10
45.00000000000009
 20
185
 11
45.00000000000009
 21
182
  0
LINE
  5
6D
100
AcDbEntity
  8
body-bottom
  6
ByLayer
 62
    5
370
   -1
100
AcDbLine
 10
45.00000000000009
 20
182
 11
60.00000000000009
 21
182
  0
LINE
  5
6E
100
AcDbEntity
  8
body-bottom
  6
ByLayer
 62
    5
370
   -1
100
AcDbLine
 10
60.00000000000009
 20
182
 11
60.00000000000009
 21
185
  0
LINE
  5
6F
100
AcDbEntity
  8
body-bottom
  6
ByLayer
 62
    5
370
   -1
100
AcDbLine
 10
60.00000000000009
 20
185
 11
75.00000000000009
 21
184.9999999999999
  0
LINE
  5
70
100
AcDbEntity
  8
body-bottom
  6
ByLayer
 62
    5
370
   -1
100
AcDbLine
 10
75.00000000000009
 20
184.9999999999999
 11
75.00000000000009
 21
181.9999999999999
  0
LINE
  5
71
100
AcDbEntity
  8
body-bottom
  6
ByLayer
 62
    5
370
   -1
100
AcDbLine
 10
75.00000000000009
 20
181.9999999999999
 11
90.00000000000009
 21
181.9999999999999
  0
LINE
  5
72
100
AcDbEntity
  8
body-bottom
  6
ByLayer
 62
    5
370
   -1
100
AcDbLine
 10
90.00000000000009
 20
181.9999999999999
 11
90.00000000000009
 21
184.9999999999999
  0
LINE
  5
73
100
AcDbEntity
  8
body-bottom
  6
ByLayer
 62
    5
370
   -1
100
AcDbLine
 10
90.00000000000009
 20
184.9999999999999
 11
105.0000000000001
 21
184.9999999999999
  0
LINE
  5
74
100
AcDbEntity
  8
body-bottom
  6
ByLayer
 62
    5
370
   -1
100
AcDbLine
 10
105.0000000000001
 20
184.9999999999999
 11
105.0000000000001
 21
181.9999999999999
  0
LINE
  5
75
100
AcDbEntity
  8
body-bottom
  6
ByLayer
 62
    5
370
   -1
100
AcDbLine
 10
105.0000000000001
 20
181.9999999999999
 11
120.0000000000001
 21
181.9999999999999
  0
LINE
  5
76
100
AcDbEntity
  8
body-bottom
  6
ByLayer
 62
    5
370
   -1
100
AcDbLine
 10
120.0000000000001
 20
181.9999999999999
 11
120.0000000000001
 21
184.9999999999999
  0
LINE
  5
77
100
AcDbEntity
  8
body-bottom
  6
ByLayer
 62
    5
370
   -1
100
AcDbLine
 10
120.0000000000001
 20
110
 11
120.0000000000001
 21
112.9999999999999
  0
LINE
  5
78
100
AcDbEntity
  8
body-bottom
  6
ByLayer
 62
    5
370
   -1
100
AcDbLine
 10
120.0000000000001
 20
112.9999999999999
 11
105.0000000000001
 21
113
  0
LINE
  5
79
100
AcDbEntity
  8
body-bottom
  6
ByLayer
 62
    5
370
   -1
100
AcDbLine
 10
105.0000000000001
 20
113
 11
105.0000000000001
 21
110
  0
LINE
  5
7A
100
AcDbEntity
  8
body-bottom
  6
ByLayer
 62
    5
370
   -1
100
AcDbLine
 10
105.0000000000001
 20
110
 11
90.00000000000009
 21
110
  0
LINE
  5
7B
100
AcDbEntity
  8
body-bottom
  6
ByLayer
 62
    5
370
   -1
100
AcDbLine
 10
90.00000000000009
 20
110
 11
90.00000000000009
 21
113
  0
LINE
  5
7C
100
AcDbEntity
  8
body-bottom
  6
ByLayer
 62
    5
370
   -1
100
AcDbLine
 10
90.00000000000009
 20
113
 11
75.00000000000009
 21
113
  0
LINE
  5
7D
100
AcDbEntity
  8
body-bottom
  6
ByLayer
 62
    5
370
   -1
100
AcDbLine
 10
75.00000000000009
 20
113
 11
75.00000000000009
 21
110
  0
LINE
  5
7E
100
AcDbEntity
  8
body-bottom
  6
ByLayer
 62
    5
370
   -1
100
AcDbLine
 10
75.00000000000009
 20
110
 11
60.00000000000009
 21
110
  0
LINE
  5
7F
100
AcDbEntity
  8
body-bottom
  6
ByLayer
 62
    5
370
   -1
100
AcDbLine
 10
60.00000000000009
 20
110
 11
60.00000000000009
 21
113
  0
LINE
  5
80
100
AcDbEntity
  8
body-bottom
  6
ByLayer
 62
    5
370
   -1
100
AcDbLine
 10
60.00000000000009
 20
113
 11
45.00000000000009
 21
113
  0
LINE
  5
81
100
AcDbEntity
  8
body-bottom
  6
ByLayer
 62
    5
370
   -1
100
AcDbLine
 10
45.00000000000009
 20
113
 11
45.00000000000009
 21
110
  0
LINE
  5
82
100
AcDbEntity
  8
body-bottom
  6
ByLayer
 62
    5
370
   -1
100
AcDbLine
 10
45.00000000000009
 20
110
 11
30.00000000000009
 21
110
  0
LINE
  5
83
100
AcDbEntity
  8
body-bottom
  6
ByLayer
 62
    5
370
   -1
100
AcDbLine
 10
30.00000000000009
 20
110
 11
30.00000000000009
 21
113
  0
LINE
  5
84
100
AcDbEntity
  8
body-bottom
  6
ByLayer
 62
    5
370
   -1
100
AcDbLine
 10
30.00000000000009
 20
113
 11
15.00000000000006
 21
113
  0
LINE
  5
85
100
AcDbEntity
  8
body-bottom
  6
ByLayer
 62
    5
370
   -1
100
AcDbLine
 10
15.00000000000006
 20
113
 11
15.00000000000006
 21
110
  0
LINE
  5
86
100
AcDbEntity
  8
body-bottom
  6
CONTINUOUS
 62
    5
370
   -1
100
AcDbLine
 10
120.0000000000001
 20
184.9999999999999
 11
135.0000000000001
 21
184.9999999999999
  0
LINE
  5
87
100
AcDbEntity
  8
body-bottom
  6
CONTINUOUS
 62
    5
370
   -1
100
AcDbLine
 10
120.0000000000001
 20
110
 11
135.0000000000001
 21
109.9999999999999
  0
LINE
  5
88
100
AcDbEntity
  8
body-bottom
  6
CONTINUOUS
 62
    5
370
   -1
100
AcDbLine
 10
5.684341886080801e-14
 20
125
 11
5.684341886080801e-14
 21
110
  0
LINE
  5
89
100
AcDbEntity
  8
body-bottom
  6
CONTINUOUS
 62
    5
370
   -1
100
AcDbLine
 10
5.684341886080801e-14
 20
110
 11
15.00000000000006
 21
110
  0
LINE
  5
8A
100
AcDbEntity
  8
body-bottom
  6
CONTINUOUS
 62
    5
370
   -1
100
AcDbLine
 10
5.684341886080801e-14
 20
170
 11
1.13686837721616e-13
 21
185
  0
LINE
  5
8B
100
AcDbEntity
  8
body-bottom
  6
CONTINUOUS
 62
    5
370
   -1
100
AcDbLine
 10
1.13686837721616e-13
 20
185
 11
15.00000000000011
 21
185
  0
CIRCLE
  5
8C
100
AcDbEntity
  8
body-bottom
  6
ByLayer
 62
    5
370
   -1
100
AcDbCircle
 10
8.000000000000057
 20
176.5578989784307
 40
2
  0
CIRCLE
  5
8D
100
AcDbEntity
  8
body-bottom
  6
ByLayer
 62
    5
370
   -1
100
AcDbCircle
 10
126.5578989784308
 20
176.9999999999999
 40
2
  0
CIRCLE
  5
8E
100
AcDbEntity
  8
body-bottom
  6
ByLayer
 62
    5
370
   -1
100
AcDbCircle
 10
127.0000000000001
 20
118.4421010215692
 40
2
  0
CIRCLE
  5
8F
100
AcDbEntity
  8
body-bottom
  6
ByLayer
 62
    5
370
   -1
100
AcDbCircle
 10
79.00000000000009
 20
142.9419287667949
 40
2
  0
CIRCLE
  5
90
100
AcDbEntity
  8
body-bottom
  6
ByLayer
 62
    5
370
   -1
100
AcDbCircle
 10
128.0000000000001
 20
142.9419287667949
 40
2
  0
CIRCLE
  5
91
100
AcDbEntity
  8
body-bottom
  6
ByLayer
 62
    5
370
   -1
100
AcDbCircle
 10
79.00000000000009
 20
152.4419287667949
 40
2
  0
CIRCLE
  5
92
100
AcDbEntity
  8
body-bottom
  6
ByLayer
 62
    5
370
   -1
100
AcDbCircle
 10
128.0000000000001
 20
152.4419287667949
 40
2
  0
CIRCLE
  5
93
100
AcDbEntity
  8
body-bottom
  6
ByLayer
 62
    5
370
   -1
100
AcDbCircle
 10
59.00000000000009
 20
163.5000000000001
 40
3.25
  0
CIRCLE
  5
94
100
AcDbEntity
  8
body-bottom
  6
ByLayer
 62
    5
370
   -1
100
AcDbCircle
 10
97.50000000000009
 20
125.2499999999999
 40
2.8
  0
LWPOLYLINE
  5
95
100
AcDbEntity
  8
body-electronics
  6
ByLayer
 62
    2
370
   -1
100
AcDbPolyline
 90
    4
 70
    1
 43
0
 10
73.00000000000009
 20
115.0000000000001
 10
73.00000000000009
 20
145.0000000000001
 10
8.000000000000057
 20
145.0000000000002
 10
8.000000000000057
 20
115.0000000000002
  0
LWPOLYLINE
  5
96
100
AcDbEntity
  8
body-electronics
  6
ByLayer
 62
    2
370
   -1
100
AcDbPolyline
 90
    4
 70
    1
 43
0
 10
24.00000000000009
 20
147.0000000000002
 10
24.00000000000009
 20
144.0000000000002
 10
14.00000000000006
 20
144.0000000000002
 10
14.00000000000006
 20
147.0000000000002
  0
LWPOLYLINE
  5
97
100
AcDbEntity
  8
body-electronics
  6
ByLayer
 62
    2
370
   -1
100
AcDbPolyline
 90
    4
 70
    1
 43
0
 10
36.60000000000011
 20
147.0000000000002
 10
36.60000000000011
 20
144.0000000000002
 10
26.60000000000011
 20
144.0000000000002
 10
26.60000000000011
 20
147.0000000000002
  0
LWPOLYLINE
  5
98
100
AcDbEntity
  8
body-electronics
  6
ByLayer
 62
    2
370
   -1
100
AcDbPolyline
 90
    4
 70
    1
 43
0
 10
76.00000000000009
 20
157.4999999999999
 10
76.00000000000009
 20
137.4999999999999
 10
131.0000000000001
 20
137.4999999999999
 10
131.0000000000001
 20
157.4999999999999
  0
LWPOLYLINE
  5
99
100
AcDbEntity
  8
body-electronics
  6
ByLayer
 62
    2
370
   -1
100
AcDbPolyline
 90
    4
 70
    1
 43
0
 10
83.50000000000009
 20
157.4999999999999
 10
83.50000000000009
 20
137.4999999999999
 10
123.5000000000001
 20
137.4999999999999
 10
123.5000000000001
 20
157.4999999999999
  0
CIRCLE
  5
9A
100
AcDbEntity
  8
body-electronics
  6
ByLayer
 62
    2
370
   -1
100
AcDbCircle
 10
113.5000000000001
 20
147.4999999999999
 40
3
  0
LINE
  5
9B
100
AcDbEntity
  8
body-electronics
  6
DASHED
 62
    2
370
   -1
100
AcDbLine
 10
113.5000000000001
 20
197.4999999999999
 11
113.5000000000001
 21
97.49999999999994
  0
ARC
  5
9C
100
AcDbEntity
  8
body-electronics
  6
DASHED
 62
    2
370
   -1
100
AcDbCircle
 10
113.5000000000001
 20
147.4999999999999
 40
50
100
AcDbArc
 50
270
 51
90
  0
CIRCLE
  5
9D
100
AcDbEntity
  8
body-electronics
  6
ByLayer
 62
    2
370
   -1
100
AcDbCircle
 10
59.00000000000009
 20
163.5
 40
13.5
  0
LWPOLYLINE
  5
9E
100
AcDbEntity
  8
body-electronics
  6
CONTINUOUS
 62
    2
370
   -1
100
AcDbPolyline
 90
    4
 70
    1
 43
0
 10
59.00000000000009
 20
134.0000000000001
 10
59.00000000000009
 20
122.0000000000001
 10
76.00000000000009
 20
122.0000000000001
 10
76.00000000000009
 20
134.0000000000001
  0
LWPOLYLINE
  5
9F
100
AcDbEntity
  8
body-electronics
  6
CONTINUOUS
 62
    2
370
   -1
100
AcDbPolyline
 90
    4
 70
    1
 43
0
 10
66.60000000000011
 20
137.0000000000001
 10
66.60000000000011
 20
146.0000000000001
 10
54.60000000000011
 20
146.0000000000001
 10
54.60000000000011
 20
137.0000000000001
  0
LINE
  5
A0
100
AcDbEntity
  8
body-right
  6
ByLayer
 62
    5
370
   -1
100
AcDbLine
 10
137.0000000000001
 20
170.05
 11
140.0000000000001
 21
170.05
  0
LINE
  5
A1
100
AcDbEntity
  8
body-right
  6
ByLayer
 62
    5
370
   -1
100
AcDbLine
 10
140.0000000000001
 20
154.9499999999999
 11
137.0000000000001
 21
154.9499999999999
  0
LINE
  5
A2
100
AcDbEntity
  8
body-right
  6
ByLayer
 62
    5
370
   -1
100
AcDbLine
 10
137.0000000000001
 20
170.05
 11
137.0000000000001
 21
154.9499999999999
  0
LINE
  5
A3
100
AcDbEntity
  8
body-right
  6
ByLayer
 62
    5
370
   -1
100
AcDbLine
 10
137.0000000000001
 20
140.05
 11
140.0000000000001
 21
140.05
  0
LINE
  5
A4
100
AcDbEntity
  8
body-right
  6
ByLayer
 62
    5
370
   -1
100
AcDbLine
 10
140.0000000000001
 20
124.9499999999999
 11
137.0000000000001
 21
124.9499999999999
  0
LINE
  5
A5
100
AcDbEntity
  8
body-right
  6
ByLayer
 62
    5
370
   -1
100
AcDbLine
 10
137.0000000000001
 20
140.05
 11
137.0000000000001
 21
124.9499999999999
  0
LINE
  5
A6
100
AcDbEntity
  8
body-right
  6
ByLayer
 62
    5
370
   -1
100
AcDbLine
 10
140.0000000000001
 20
140.05
 11
140.0000000000001
 21
154.9499999999999
  0
LINE
  5
A7
100
AcDbEntity
  8
body-right
  6
CONTINUOUS
 62
    5
370
   -1
100
AcDbLine
 10
140.0000000000001
 20
112
 11
140.0000000000001
 21
124.9499999999999
  0
LINE
  5
A8
100
AcDbEntity
  8
body-right
  6
CONTINUOUS
 62
    5
370
   -1
100
AcDbLine
 10
140.0000000000001
 20
170.05
 11
140.0000000000001
 21
182.9999999999999
  0
LINE
  5
A9
100
AcDbEntity
  8
body-left
  6
ByLayer
 62
    5
370
   -1
100
AcDbLine
 10
-1.999999999999943
 20
170.05
 11
-4.999999999999943
 21
170.05
  0
LINE
  5
AA
100
AcDbEntity
  8
body-left
  6
ByLayer
 62
    5
370
   -1
100
AcDbLine
 10
-4.999999999999943
 20
154.95
 11
-1.999999999999943
 21
154.95
  0
LINE
  5
AB
100
AcDbEntity
  8
body-left
  6
ByLayer
 62
    5
370
   -1
100
AcDbLine
 10
-1.999999999999943
 20
170.05
 11
-1.999999999999943
 21
154.95
  0
LINE
  5
AC
100
AcDbEntity
  8
body-left
  6
ByLayer
 62
    5
370
   -1
100
AcDbLine
 10
-1.999999999999943
 20
140.05
 11
-4.999999999999943
 21
140.05
  0
LINE
  5
AD
100
AcDbEntity
  8
body-left
  6
ByLayer
 62
    5
370
   -1
100
AcDbLine
 10
-4.999999999999943
 20
124.95
 11
-1.999999999999943
 21
124.95
  0
LINE
  5
AE
100
AcDbEntity
  8
body-left
  6
ByLayer
 62
    5
370
   -1
100
AcDbLine
 10
-1.999999999999943
 20
140.05
 11
-1.999999999999943
 21
124.95
  0
LINE
  5
AF
100
AcDbEntity
  8
body-left
  6
ByLayer
 62
    5
370
   -1
100
AcDbLine
 10
-4.999999999999943
 20
140.05
 11
-4.999999999999943
 21
154.95
  0
LINE
  5
B0
100
AcDbEntity
  8
body-left
  6
CONTINUOUS
 62
    5
370
   -1
100
AcDbLine
 10
-4.999999999999943
 20
112
 11
-4.999999999999943
 21
124.95
  0
LINE
  5
B1
100
AcDbEntity
  8
body-left
  6
CONTINUOUS
 62
    5
370
   -1
100
AcDbLine
 10
-4.999999999999943
 20
170.05
 11
-4.999999999999886
 21
182.9999999999999
  0
LINE
  5
B2
100
AcDbEntity
  8
body-front
  6
ByLayer
 62
    5
370
   -1
100
AcDbLine
 10
14.9500000000001
 20
108
 11
14.9500000000001
 21
105
  0
LINE
  5
B3
100
AcDbEntity
  8
body-front
  6
ByLayer
 62
    5
370
   -1
100
AcDbLine
 10
30.05000000000015
 20
105
 11
30.05000000000015
 21
108
  0
LINE
  5
B4
100
AcDbEntity
  8
body-front
  6
ByLayer
 62
    5
370
   -1
100
AcDbLine
 10
14.9500000000001
 20
108
 11
30.05000000000015
 21
108
  0
LINE
  5
B5
100
AcDbEntity
  8
body-front
  6
ByLayer
 62
    5
370
   -1
100
AcDbLine
 10
44.95000000000013
 20
108
 11
44.95000000000013
 21
105
  0
LINE
  5
B6
100
AcDbEntity
  8
body-front
  6
ByLayer
 62
    5
370
   -1
100
AcDbLine
 10
60.05000000000015
 20
105
 11
60.05000000000015
 21
108
  0
LINE
  5
B7
100
AcDbEntity
  8
body-front
  6
ByLayer
 62
    5
370
   -1
100
AcDbLine
 10
44.95000000000013
 20
108
 11
60.05000000000015
 21
108
  0
LINE
  5
B8
100
AcDbEntity
  8
body-front
  6
ByLayer
 62
    5
370
   -1
100
AcDbLine
 10
74.95000000000013
 20
108
 11
74.95000000000013
 21
105
  0
LINE
  5
B9
100
AcDbEntity
  8
body-front
  6
ByLayer
 62
    5
370
   -1
100
AcDbLine
 10
90.05000000000015
 20
104.9999999999999
 11
90.05000000000015
 21
107.9999999999999
  0
LINE
  5
BA
100
AcDbEntity
  8
body-front
  6
ByLayer
 62
    5
370
   -1
100
AcDbLine
 10
74.95000000000013
 20
108
 11
90.05000000000015
 21
107.9999999999999
  0
LINE
  5
BB
100
AcDbEntity
  8
body-front
  6
ByLayer
 62
    5
370
   -1
100
AcDbLine
 10
74.95000000000013
 20
105
 11
60.05000000000015
 21
105
  0
LINE
  5
BC
100
AcDbEntity
  8
body-front
  6
ByLayer
 62
    5
370
   -1
100
AcDbLine
 10
104.9500000000001
 20
107.9999999999999
 11
104.9500000000001
 21
104.9999999999999
  0
LINE
  5
BD
100
AcDbEntity
  8
body-front
  6
ByLayer
 62
    5
370
   -1
100
AcDbLine
 10
104.9500000000001
 20
107.9999999999999
 11
120.0500000000002
 21
107.9999999999999
  0
LINE
  5
BE
100
AcDbEntity
  8
body-front
  6
ByLayer
 62
    5
370
   -1
100
AcDbLine
 10
104.9500000000001
 20
104.9999999999999
 11
90.05000000000015
 21
104.9999999999999
  0
LINE
  5
BF
100
AcDbEntity
  8
body-front
  6
ByLayer
 62
    5
370
   -1
100
AcDbLine
 10
44.95000000000013
 20
105
 11
30.05000000000015
 21
105
  0
LINE
  5
C0
100
AcDbEntity
  8
body-front
  6
CONTINUOUS
 62
    5
370
   -1
100
AcDbLine
 10
120.0500000000001
 20
104.9999999999999
 11
132.0000000000001
 21
104.9999999999999
  0
LINE
  5
C1
100
AcDbEntity
  8
body-front
  6
CONTINUOUS
 62
    5
370
   -1
100
AcDbLine
 10
14.9500000000001
 20
105
 11
3.000000000000057
 21
105
  0
LINE
  5
C2
100
AcDbEntity
  8
body-front
  6
ByLayer
 62
    5
370
   -1
100
AcDbLine
 10
120.05
 20
107.9999999999999
 11
120.05
 21
104.9999999999999
  0
LINE
  5
C3
100
AcDbEntity
  8
body-back
  6
ByLayer
 62
    5
370
   -1
100
AcDbLine
 10
14.95000000000017
 20
187
 11
14.95000000000017
 21
190
  0
LINE
  5
C4
100
AcDbEntity
  8
body-back
  6
ByLayer
 62
    5
370
   -1
100
AcDbLine
 10
30.05000000000017
 20
190
 11
30.05000000000017
 21
187
  0
LINE
  5
C5
100
AcDbEntity
  8
body-back
  6
ByLayer
 62
    5
370
   -1
100
AcDbLine
 10
44.95000000000014
 20
187
 11
44.95000000000014
 21
190
  0
LINE
  5
C6
100
AcDbEntity
  8
body-back
  6
ByLayer
 62
    5
370
   -1
100
AcDbLine
 10
60.05000000000017
 20
190
 11
60.05000000000017
 21
187
  0
LINE
  5
C7
100
AcDbEntity
  8
body-back
  6
ByLayer
 62
    5
370
   -1
100
AcDbLine
 10
74.95000000000014
 20
186.9999999999999
 11
74.95000000000014
 21
189.9999999999999
  0
LINE
  5
C8
100
AcDbEntity
  8
body-back
  6
ByLayer
 62
    5
370
   -1
100
AcDbLine
 10
90.0500000000002
 20
189.9999999999999
 11
90.0500000000002
 21
186.9999999999999
  0
LINE
  5
C9
100
AcDbEntity
  8
body-back
  6
ByLayer
 62
    5
370
   -1
100
AcDbLine
 10
74.95000000000014
 20
189.9999999999999
 11
60.05000000000017
 21
190
  0
LINE
  5
CA
100
AcDbEntity
  8
body-back
  6
ByLayer
 62
    5
370
   -1
100
AcDbLine
 10
104.9500000000002
 20
186.9999999999999
 11
104.9500000000002
 21
189.9999999999999
  0
LINE
  5
CB
100
AcDbEntity
  8
body-back
  6
ByLayer
 62
    5
370
   -1
100
AcDbLine
 10
120.0500000000002
 20
189.9999999999999
 11
120.0500000000002
 21
186.9999999999999
  0
LINE
  5
CC
100
AcDbEntity
  8
body-back
  6
ByLayer
 62
    5
370
   -1
100
AcDbLine
 10
104.9500000000002
 20
189.9999999999999
 11
90.0500000000002
 21
189.9999999999999
  0
LINE
  5
CD
100
AcDbEntity
  8
body-back
  6
CONTINUOUS
 62
    5
370
   -1
100
AcDbLine
 10
120.0500000000002
 20
189.9999999999999
 11
132.0000000000001
 21
189.9999999999999
  0
LINE
  5
CE
100
AcDbEntity
  8
body-back
  6
CONTINUOUS
 62
    5
370
   -1
100
AcDbLine
 10
14.95000000000017
 20
190
 11
3.000000000000128
 21
190
  0
LINE
  5
CF
100
AcDbEntity
  8
body-back
  6
CONTINUOUS
 62
    5
370
   -1
100
AcDbLine
 10
30.05000000000017
 20
190
 11
30.05000000000017
 21
193.5
  0
LINE
  5
D0
100
AcDbEntity
  8
body-back
  6
CONTINUOUS
 62
    5
370
   -1
100
AcDbLine
 10
30.05000000000017
 20
193.5
 11
33.55000000000017
 21
193.5
  0
LINE
  5
D1
100
AcDbEntity
  8
body-back
  6
CONTINUOUS
 62
    5
370
   -1
100
AcDbLine
 10
33.55000000000017
 20
193.5
 11
33.55000000000017
 21
190
  0
LINE
  5
D2
100
AcDbEntity
  8
body-back
  6
CONTINUOUS
 62
    5
370
   -1
100
AcDbLine
 10
33.55000000000017
 20
190
 11
44.95000000000009
 21
190
  0
LINE
  5
D3
100
AcDbEntity
  8
body-left
  6
CONTINUOUS
 62
    5
370
   -1
100
AcDbLine
 10
-9.999999999999943
 20
112
 11
-9.999999999999943
 21
115
  0
LINE
  5
D4
100
AcDbEntity
  8
body-left
  6
CONTINUOUS
 62
    5
370
   -1
100
AcDbLine
 10
-9.999999999999943
 20
115
 11
-24.99999999999994
 21
115
  0
LINE
  5
D5
100
AcDbEntity
  8
body-left
  6
CONTINUOUS
 62
    5
370
   -1
100
AcDbLine
 10
-24.99999999999994
 20
115
 11
-24.99999999999994
 21
112
  0
LINE
  5
D6
100
AcDbEntity
  8
body-left
  6
CONTINUOUS
 62
    5
370
   -1
100
AcDbLine
 10
-9.999999999999943
 20
182.9999999999999
 11
-9.999999999999943
 21
179.9999999999999
  0
LINE
  5
D7
100
AcDbEntity
  8
body-left
  6
CONTINUOUS
 62
    5
370
   -1
100
AcDbLine
 10
-9.999999999999943
 20
179.9999999999999
 11
-24.99999999999994
 21
179.9999999999999
  0
LINE
  5
D8
100
AcDbEntity
  8
body-left
  6
CONTINUOUS
 62
    5
370
   -1
100
AcDbLine
 10
-24.99999999999994
 20
179.9999999999999
 11
-24.99999999999994
 21
182.9999999999999
  0
LWPOLYLINE
  5
D9
100
AcDbEntity
  8
body-left
  6
ByLayer
 62
    5
370
   -1
100
AcDbPolyline
 90
    4
 70
    1
 43
0
 10
-16.99999999999994
 20
175
 10
-16.99999999999994
 20
120
 10
-17.99999999999994
 20
120
 10
-17.99999999999994
 20
175
  0
LWPOLYLINE
  5
DA
100
AcDbEntity
  8
body-left
  6
ByLayer
 62
    5
370
    0
100
AcDbPolyline
 90
    2
 70
    0
 43
0
 10
-12.00007731257284
 20
170.0000693370942
 10
-12.00007731257273
 20
125.0001029176801
  0
LWPOLYLINE
  5
DB
100
AcDbEntity
  8
body-left
  6
ByLayer
 62
    5
370
    0
100
AcDbPolyline
 90
    2
 70
    0
 43
0
 10
-12.00007731257273
 20
125.0001029176801
 10
-10.99996609320482
 20
125.0001029176801
  0
LWPOLYLINE
  5
DC
100
AcDbEntity
  8
body-left
  6
ByLayer
 62
    5
370
    0
100
AcDbPolyline
 90
    2
 70
    0
 43
0
 10
-10.99996609320482
 20
125.0001029176801
 10
-10.99996609320482
 20
170.0000693370942
  0
LWPOLYLINE
  5
DD
100
AcDbEntity
  8
body-left
  6
ByLayer
 62
    5
370
    0
100
AcDbPolyline
 90
    2
 70
    0
 43
0
 10
-22.99992268742704
 20
170.0000693370942
 10
-22.99992268742704
 20
125.0001029176801
  0
LWPOLYLINE
  5
DE
100
AcDbEntity
  8
body-left
  6
ByLayer
 62
    5
370
    0
100
AcDbPolyline
 90
    2
 70
    0
 43
0
 10
-22.99992268742704
 20
125.0001029176801
 10
-24.00003390679507
 20
125.0001029176801
  0
LWPOLYLINE
  5
DF
100
AcDbEntity
  8
body-left
  6
ByLayer
 62
    5
370
    0
100
AcDbPolyline
 90
    2
 70
    0
 43
0
 10
-24.00003390679507
 20
125.0001029176801
 10
-24.00003390679495
 20
170.0000693370942
  0
LWPOLYLINE
  5
E0
100
AcDbEntity
  8
body-left
  6
ByLayer
 62
    5
370
    0
100
AcDbPolyline
 90
    2
 70
    0
 43
0
 10
-24.00003390679495
 20
170.0000693370942
 10
-22.99992268742704
 20
170.0000693370942
  0
LWPOLYLINE
  5
E1
100
AcDbEntity
  8
body-left
  6
ByLayer
 62
    5
370
    0
100
AcDbPolyline
 90
    2
 70
    0
 43
0
 10
-10.99996609320482
 20
170.0000693370942
 10
-12.00007731257284
 20
170.0000693370942
  0
LINE
  5
E2
100
AcDbEntity
  8
body-left
  6
ByLayer
 62
    5
370
   -1
100
AcDbLine
 10
-32.99999999999994
 20
170.05
 11
-29.99999999999994
 21
170.05
  0
LINE
  5
E3
100
AcDbEntity
  8
body-left
  6
ByLayer
 62
    5
370
   -1
100
AcDbLine
 10
-29.99999999999994
 20
154.95
 11
-32.99999999999994
 21
154.95
  0
LINE
  5
E4
100
AcDbEntity
  8
body-left
  6
ByLayer
 62
    5
370
   -1
100
AcDbLine
 10
-32.99999999999994
 20
170.05
 11
-32.99999999999994
 21
154.95
  0
LINE
  5
E5
100
AcDbEntity
  8
body-left
  6
ByLayer
 62
    5
370
   -1
100
AcDbLine
 10
-32.99999999999994
 20
140.05
 11
-29.99999999999994
 21
140.05
  0
LINE
  5
E6
100
AcDbEntity
  8
body-left
  6
ByLayer
 62
    5
370
   -1
100
AcDbLine
 10
-29.99999999999994
 20
124.95
 11
-32.99999999999994
 21
124.95
  0
LINE
  5
E7
100
AcDbEntity
  8
body-left
  6
ByLayer
 62
    5
370
   -1
100
AcDbLine
 10
-32.99999999999994
 20
140.05
 11
-32.99999999999994
 21
124.95
  0
LINE
  5
E8
100
AcDbEntity
  8
body-left
  6
ByLayer
 62
    5
370
   -1
100
AcDbLine
 10
-29.99999999999994
 20
140.05
 11
-29.99999999999994
 21
154.95
  0
LINE
  5
E9
100
AcDbEntity
  8
body-left
  6
CONTINUOUS
 62
    5
370
   -1
100
AcDbLine
 10
-29.99999999999994
 20
112
 11
-29.99999999999994
 21
124.95
  0
LINE
  5
EA
100
AcDbEntity
  8
body-left
  6
CONTINUOUS
 62
    5
370
   -1
100
AcDbLine
 10
-29.99999999999994
 20
170.05
 11
-29.99999999999994
 21
183
  0
LINE
  5
EB
100
AcDbEntity
  8
body-left
  6
CONTINUOUS
 62
    5
370
   -1
100
AcDbLine
 10
-29.99999999999994
 20
183
 11
-24.99999999999994
 21
182.9999999999999
  0
LINE
  5
EC
100
AcDbEntity
  8
body-left
  6
CONTINUOUS
 62
    5
370
   -1
100
AcDbLine
 10
-9.999999999999943
 20
182.9999999999999
 11
-4.999999999999886
 21
182.9999999999999
  0
LINE
  5
ED
100
AcDbEntity
  8
body-left
  6
CONTINUOUS
 62
    5
370
   -1
100
AcDbLine
 10
-9.999999999999943
 20
112
 11
-4.999999999999943
 21
112
  0
LINE
  5
EE
100
AcDbEntity
  8
body-left
  6
CONTINUOUS
 62
    5
370
   -1
100
AcDbLine
 10
-29.99999999999994
 20
112
 11
-24.99999999999994
 21
112
  0
LINE
  5
EF
100
AcDbEntity
  8
body-right
  6
CONTINUOUS
 62
    5
370
   -1
100
AcDbLine
 10
145.0000000000001
 20
112
 11
145.0000000000001
 21
115
  0
LINE
  5
F0
100
AcDbEntity
  8
body-right
  6
CONTINUOUS
 62
    5
370
   -1
100
AcDbLine
 10
145.0000000000001
 20
115
 11
160.0000000000001
 21
115
  0
LINE
  5
F1
100
AcDbEntity
  8
body-right
  6
CONTINUOUS
 62
    5
370
   -1
100
AcDbLine
 10
160.0000000000001
 20
115
 11
160.0000000000001
 21
112
  0
LINE
  5
F2
100
AcDbEntity
  8
body-right
  6
CONTINUOUS
 62
    5
370
   -1
100
AcDbLine
 10
145.0000000000001
 20
182.9999999999999
 11
145.0000000000001
 21
179.9999999999999
  0
LINE
  5
F3
100
AcDbEntity
  8
body-right
  6
CONTINUOUS
 62
    5
370
   -1
100
AcDbLine
 10
145.0000000000001
 20
179.9999999999999
 11
160.0000000000001
 21
179.9999999999999
  0
LINE
  5
F4
100
AcDbEntity
  8
body-right
  6
CONTINUOUS
 62
    5
370
   -1
100
AcDbLine
 10
160.0000000000001
 20
179.9999999999999
 11
160.0000000000001
 21
182.9999999999999
  0
LWPOLYLINE
  5
F5
100
AcDbEntity
  8
body-right
  6
ByLayer
 62
    5
370
   -1
100
AcDbPolyline
 90
    4
 70
    1
 43
0
 10
152.0000000000001
 20
174.9999999999999
 10
152.0000000000001
 20
119.9999999999999
 10
153.0000000000001
 20
119.9999999999999
 10
153.0000000000001
 20
174.9999999999999
  0
LWPOLYLINE
  5
F6
100
AcDbEntity
  8
body-right
  6
ByLayer
 62
    5
370
    0
100
AcDbPolyline
 90
    2
 70
    0
 43
0
 10
147.000077312573
 20
170.0000693370941
 10
147.000077312573
 20
125.00010291768
  0
LWPOLYLINE
  5
F7
100
AcDbEntity
  8
body-right
  6
ByLayer
 62
    5
370
    0
100
AcDbPolyline
 90
    2
 70
    0
 43
0
 10
147.000077312573
 20
125.00010291768
 10
145.9999660932049
 20
125.00010291768
  0
LWPOLYLINE
  5
F8
100
AcDbEntity
  8
body-right
  6
ByLayer
 62
    5
370
    0
100
AcDbPolyline
 90
    2
 70
    0
 43
0
 10
145.9999660932049
 20
125.00010291768
 10
145.999966093205
 20
170.0000693370941
  0
LWPOLYLINE
  5
F9
100
AcDbEntity
  8
body-right
  6
ByLayer
 62
    5
370
    0
100
AcDbPolyline
 90
    2
 70
    0
 43
0
 10
157.9999226874272
 20
170.0000693370941
 10
157.9999226874273
 20
125.00010291768
  0
LWPOLYLINE
  5
FA
100
AcDbEntity
  8
body-right
  6
ByLayer
 62
    5
370
    0
100
AcDbPolyline
 90
    2
 70
    0
 43
0
 10
157.9999226874273
 20
125.00010291768
 10
159.0000339067952
 20
125.00010291768
  0
LWPOLYLINE
  5
FB
100
AcDbEntity
  8
body-right
  6
ByLayer
 62
    5
370
    0
100
AcDbPolyline
 90
    2
 70
    0
 43
0
 10
159.0000339067952
 20
125.00010291768
 10
159.0000339067952
 20
170.0000693370941
  0
LWPOLYLINE
  5
FC
100
AcDbEntity
  8
body-right
  6
ByLayer
 62
    5
370
    0
100
AcDbPolyline
 90
    2
 70
    0
 43
0
 10
159.0000339067952
 20
170.0000693370941
 10
157.9999226874272
 20
170.0000693370941
  0
LWPOLYLINE
  5
FD
100
AcDbEntity
  8
body-right
  6
ByLayer
 62
    5
370
    0
100
AcDbPolyline
 90
    2
 70
    0
 43
0
 10
145.999966093205
 20
170.0000693370941
 10
147.000077312573
 20
170.0000693370941
  0
LINE
  5
FE
100
AcDbEntity
  8
body-right
  6
ByLayer
 62
    5
370
   -1
100
AcDbLine
 10
168.0000000000001
 20
170.05
 11
165.0000000000001
 21
170.05
  0
LINE
  5
FF
100
AcDbEntity
  8
body-right
  6
ByLayer
 62
    5
370
   -1
100
AcDbLine
 10
165.0000000000001
 20
124.9499999999999
 11
168.0000000000001
 21
124.9499999999999
  0
LINE
  5
100
100
AcDbEntity
  8
body-right
  6
CONTINUOUS
 62
    5
370
   -1
100
AcDbLine
 10
165.0000000000001
 20
112
 11
165.0000000000001
 21
124.9499999999999
  0
LINE
  5
101
100
AcDbEntity
  8
body-right
  6
CONTINUOUS
 62
    5
370
   -1
100
AcDbLine
 10
165.0000000000001
 20
170.05
 11
163.2500000000001
 21
170.05
  0
LINE
  5
102
100
AcDbEntity
  8
body-right
  6
CONTINUOUS
 62
    5
370
   -1
100
AcDbLine
 10
163.2500000000001
 20
170.05
 11
163.2500000000001
 21
175.05
  0
LINE
  5
103
100
AcDbEntity
  8
body-right
  6
CONTINUOUS
 62
    5
370
   -1
100
AcDbLine
 10
163.2500000000001
 20
175.05
 11
165.0000000000001
 21
175.05
  0
LINE
  5
104
100
AcDbEntity
  8
body-right
  6
CONTINUOUS
 62
    5
370
   -1
100
AcDbLine
 10
165.0000000000001
 20
175.05
 11
165.0000000000001
 21
183
  0
LINE
  5
105
100
AcDbEntity
  8
body-right
  6
CONTINUOUS
 62
    5
370
   -1
100
AcDbLine
 10
168.0000000000001
 20
124.9499999999999
 11
168.0000000000001
 21
170.05
  0
LINE
  5
106
100
AcDbEntity
  8
body-right
  6
CONTINUOUS
 62
    5
370
   -1
100
AcDbLine
 10
140.0000000000001
 20
182.9999999999999
 11
145.0000000000001
 21
182.9999999999999
  0
LINE
  5
107
100
AcDbEntity
  8
body-right
  6
CONTINUOUS
 62
    5
370
   -1
100
AcDbLine
 10
160.0000000000001
 20
182.9999999999999
 11
165.0000000000001
 21
183
  0
LINE
  5
108
100
AcDbEntity
  8
body-right
  6
CONTINUOUS
 62
    5
370
   -1
100
AcDbLine
 10
160.0000000000001
 20
112
 11
165.0000000000001
 21
112
  0
LINE
  5
109
100
AcDbEntity
  8
body-right
  6
CONTINUOUS
 62
    5
370
   -1
100
AcDbLine
 10
140.0000000000001
 20
112
 11
145.0000000000001
 21
112
  0
LINE
  5
10A
100
AcDbEntity
  8
body-front
  6
ByLayer
 62
    5
370
   -1
100
AcDbLine
 10
5.684341886080801e-14
 20
100.05
 11
3.000000000000057
 21
100.05
  0
LINE
  5
10B
100
AcDbEntity
  8
body-front
  6
ByLayer
 62
    5
370
   -1
100
AcDbLine
 10
5.684341886080801e-14
 20
100.05
 11
5.684341886080801e-14
 21
84.94999999999999
  0
LINE
  5
10C
100
AcDbEntity
  8
body-front
  6
ByLayer
 62
    5
370
   -1
100
AcDbLine
 10
5.684341886080801e-14
 20
84.9500000000001
 11
3.000000000000057
 21
84.9500000000001
  0
LINE
  5
10D
100
AcDbEntity
  8
body-front
  6
ByLayer
 62
    5
370
   -1
100
AcDbLine
 10
135.0000000000002
 20
100.05
 11
132.0000000000002
 21
100.05
  0
LINE
  5
10E
100
AcDbEntity
  8
body-front
  6
ByLayer
 62
    5
370
   -1
100
AcDbLine
 10
135.0000000000002
 20
84.95000000000005
 11
132.0000000000002
 21
84.95000000000005
  0
LINE
  5
10F
100
AcDbEntity
  8
body-front
  6
ByLayer
 62
    5
370
   -1
100
AcDbLine
 10
135.0000000000001
 20
100.05
 11
135.0000000000001
 21
84.94999999999993
  0
LINE
  5
110
100
AcDbEntity
  8
body-top
  6
ByLayer
 62
    5
370
   -1
100
AcDbLine
 10
132
 20
14.99999999999994
 11
135
 21
14.99999999999994
  0
LINE
  5
111
100
AcDbEntity
  8
body-top
  6
ByLayer
 62
    5
370
   -1
100
AcDbLine
 10
132
 20
59.99999999999989
 11
135
 21
59.99999999999989
  0
LINE
  5
112
100
AcDbEntity
  8
body-top
  6
ByLayer
 62
    5
370
   -1
100
AcDbLine
 10
3.000000000000057
 20
60
 11
3.000000000000057
 21
45
  0
LINE
  5
113
100
AcDbEntity
  8
body-top
  6
ByLayer
 62
    5
370
   -1
100
AcDbLine
 10
3.000000000000057
 20
45
 11
5.684341886080801e-14
 21
45
  0
LINE
  5
114
100
AcDbEntity
  8
body-top
  6
ByLayer
 62
    5
370
   -1
100
AcDbLine
 10
5.684341886080801e-14
 20
45
 11
5.684341886080801e-14
 21
30
  0
LINE
  5
115
100
AcDbEntity
  8
body-top
  6
ByLayer
 62
    5
370
   -1
100
AcDbLine
 10
5.684341886080801e-14
 20
30
 11
3.000000000000057
 21
30
  0
LINE
  5
116
100
AcDbEntity
  8
body-top
  6
ByLayer
 62
    5
370
   -1
100
AcDbLine
 10
3.000000000000057
 20
30
 11
3.000000000000057
 21
15
  0
LINE
  5
117
100
AcDbEntity
  8
body-top
  6
ByLayer
 62
    5
370
   -1
100
AcDbLine
 10
3.000000000000057
 20
15
 11
5.684341886080801e-14
 21
15
  0
LINE
  5
118
100
AcDbEntity
  8
body-top
  6
ByLayer
 62
    5
370
   -1
100
AcDbLine
 10
3.000000000000057
 20
60
 11
5.684341886080801e-14
 21
60
  0
LINE
  5
119
100
AcDbEntity
  8
body-top
  6
CONTINUOUS
 62
    5
370
   -1
100
AcDbLine
 10
135
 20
-5.684341886080801e-14
 11
135
 21
14.99999999999994
  0
LINE
  5
11A
100
AcDbEntity
  8
body-top
  6
CONTINUOUS
 62
    5
370
   -1
100
AcDbLine
 10
135
 20
59.99999999999989
 11
135.0000000000001
 21
74.99999999999994
  0
LINE
  5
11B
100
AcDbEntity
  8
body-top
  6
ByLayer
 62
    5
370
   -1
100
AcDbLine
 10
15
 20
0
 11
14.99999999999994
 21
3
  0
LINE
  5
11C
100
AcDbEntity
  8
body-top
  6
ByLayer
 62
    5
370
   -1
100
AcDbLine
 10
14.99999999999994
 20
3
 11
29.99999999999997
 21
3
  0
LINE
  5
11D
100
AcDbEntity
  8
body-top
  6
ByLayer
 62
    5
370
   -1
100
AcDbLine
 10
29.99999999999997
 20
3
 11
29.99999999999997
 21
0
  0
LINE
  5
11E
100
AcDbEntity
  8
body-top
  6
ByLayer
 62
    5
370
   -1
100
AcDbLine
 10
29.99999999999997
 20
0
 11
44.99999999999997
 21
0
  0
LINE
  5
11F
100
AcDbEntity
  8
body-top
  6
ByLayer
 62
    5
370
   -1
100
AcDbLine
 10
44.99999999999997
 20
0
 11
44.99999999999997
 21
3
  0
LINE
  5
120
100
AcDbEntity
  8
body-top
  6
ByLayer
 62
    5
370
   -1
100
AcDbLine
 10
44.99999999999997
 20
3
 11
59.99999999999997
 21
3
  0
LINE
  5
121
100
AcDbEntity
  8
body-top
  6
ByLayer
 62
    5
370
   -1
100
AcDbLine
 10
59.99999999999997
 20
3
 11
59.99999999999997
 21
0
  0
LINE
  5
122
100
AcDbEntity
  8
body-top
  6
ByLayer
 62
    5
370
   -1
100
AcDbLine
 10
59.99999999999997
 20
0
 11
74.99999999999997
 21
-5.684341886080801e-14
  0
LINE
  5
123
100
AcDbEntity
  8
body-top
  6
ByLayer
 62
    5
370
   -1
100
AcDbLine
 10
74.99999999999997
 20
-5.684341886080801e-14
 11
74.99999999999997
 21
2.999999999999943
  0
LINE
  5
124
100
AcDbEntity
  8
body-top
  6
ByLayer
 62
    5
370
   -1
100
AcDbLine
 10
74.99999999999997
 20
2.999999999999943
 11
90.00000000000003
 21
2.999999999999943
  0
LINE
  5
125
100
AcDbEntity
  8
body-top
  6
ByLayer
 62
    5
370
   -1
100
AcDbLine
 10
90.00000000000003
 20
2.999999999999943
 11
90.00000000000003
 21
-5.684341886080801e-14
  0
LINE
  5
126
100
AcDbEntity
  8
body-top
  6
ByLayer
 62
    5
370
   -1
100
AcDbLine
 10
90.00000000000003
 20
-5.684341886080801e-14
 11
105
 21
-5.684341886080801e-14
  0
LINE
  5
127
100
AcDbEntity
  8
body-top
  6
ByLayer
 62
    5
370
   -1
100
AcDbLine
 10
105
 20
-5.684341886080801e-14
 11
105
 21
2.999999999999943
  0
LINE
  5
128
100
AcDbEntity
  8
body-top
  6
ByLayer
 62
    5
370
   -1
100
AcDbLine
 10
105
 20
2.999999999999943
 11
120
 21
2.999999999999943
  0
LINE
  5
129
100
AcDbEntity
  8
body-top
  6
ByLayer
 62
    5
370
   -1
100
AcDbLine
 10
120
 20
2.999999999999943
 11
120
 21
-5.684341886080801e-14
  0
LINE
  5
12A
100
AcDbEntity
  8
body-top
  6
ByLayer
 62
    5
370
   -1
100
AcDbLine
 10
120.0000000000001
 20
74.99999999999989
 11
120.0000000000001
 21
71.99999999999994
  0
LINE
  5
12B
100
AcDbEntity
  8
body-top
  6
ByLayer
 62
    5
370
   -1
100
AcDbLine
 10
120.0000000000001
 20
71.99999999999994
 11
105
 21
71.99999999999989
  0
LINE
  5
12C
100
AcDbEntity
  8
body-top
  6
ByLayer
 62
    5
370
   -1
100
AcDbLine
 10
105
 20
71.99999999999989
 11
105.0000000000001
 21
74.99999999999989
  0
LINE
  5
12D
100
AcDbEntity
  8
body-top
  6
ByLayer
 62
    5
370
   -1
100
AcDbLine
 10
105.0000000000001
 20
74.99999999999989
 11
90.00000000000009
 21
74.99999999999989
  0
LINE
  5
12E
100
AcDbEntity
  8
body-top
  6
ByLayer
 62
    5
370
   -1
100
AcDbLine
 10
90.00000000000009
 20
74.99999999999989
 11
90.00000000000009
 21
71.99999999999989
  0
LINE
  5
12F
100
AcDbEntity
  8
body-top
  6
ByLayer
 62
    5
370
   -1
100
AcDbLine
 10
90.00000000000009
 20
71.99999999999989
 11
75.00000000000009
 21
71.99999999999989
  0
LINE
  5
130
100
AcDbEntity
  8
body-top
  6
ByLayer
 62
    5
370
   -1
100
AcDbLine
 10
75.00000000000009
 20
71.99999999999989
 11
75.00000000000009
 21
74.99999999999989
  0
LINE
  5
131
100
AcDbEntity
  8
body-top
  6
ByLayer
 62
    5
370
   -1
100
AcDbLine
 10
75.00000000000009
 20
74.99999999999989
 11
60.00000000000003
 21
75
  0
LINE
  5
132
100
AcDbEntity
  8
body-top
  6
ByLayer
 62
    5
370
   -1
100
AcDbLine
 10
60.00000000000003
 20
75
 11
60.00000000000003
 21
72
  0
LINE
  5
133
100
AcDbEntity
  8
body-top
  6
ByLayer
 62
    5
370
   -1
100
AcDbLine
 10
60.00000000000003
 20
72
 11
45.00000000000003
 21
72
  0
LINE
  5
134
100
AcDbEntity
  8
body-top
  6
ByLayer
 62
    5
370
   -1
100
AcDbLine
 10
45.00000000000003
 20
72
 11
45.00000000000003
 21
75
  0
LINE
  5
135
100
AcDbEntity
  8
body-top
  6
ByLayer
 62
    5
370
   -1
100
AcDbLine
 10
45.00000000000003
 20
75
 11
30.00000000000003
 21
75
  0
LINE
  5
136
100
AcDbEntity
  8
body-top
  6
ByLayer
 62
    5
370
   -1
100
AcDbLine
 10
30.00000000000003
 20
75
 11
30.00000000000003
 21
72
  0
LINE
  5
137
100
AcDbEntity
  8
body-top
  6
ByLayer
 62
    5
370
   -1
100
AcDbLine
 10
30.00000000000003
 20
72
 11
15.00000000000006
 21
72
  0
LINE
  5
138
100
AcDbEntity
  8
body-top
  6
ByLayer
 62
    5
370
   -1
100
AcDbLine
 10
15.00000000000006
 20
72
 11
15.00000000000006
 21
75
  0
LINE
  5
139
100
AcDbEntity
  8
body-top
  6
CONTINUOUS
 62
    5
370
   -1
100
AcDbLine
 10
120
 20
-5.684341886080801e-14
 11
135
 21
-5.684341886080801e-14
  0
LINE
  5
13A
100
AcDbEntity
  8
body-top
  6
CONTINUOUS
 62
    5
370
   -1
100
AcDbLine
 10
120.0000000000001
 20
74.99999999999989
 11
135.0000000000001
 21
74.99999999999994
  0
LINE
  5
13B
100
AcDbEntity
  8
body-top
  6
CONTINUOUS
 62
    5
370
   -1
100
AcDbLine
 10
5.684341886080801e-14
 20
60
 11
5.684341886080801e-14
 21
75
  0
LINE
  5
13C
100
AcDbEntity
  8
body-top
  6
CONTINUOUS
 62
    5
370
   -1
100
AcDbLine
 10
5.684341886080801e-14
 20
75
 11
15.00000000000006
 21
75
  0
LINE
  5
13D
100
AcDbEntity
  8
body-top
  6
CONTINUOUS
 62
    5
370
   -1
100
AcDbLine
 10
5.684341886080801e-14
 20
15
 11
0
 21
0
  0
LINE
  5
13E
100
AcDbEntity
  8
body-top
  6
CONTINUOUS
 62
    5
370
   -1
100
AcDbLine
 10
0
 20
0
 11
15
 21
0
  0
CIRCLE
  5
13F
100
AcDbEntity
  8
body-top
  6
ByLayer
 62
    5
370
   -1
100
AcDbCircle
 10
7.999999999999943
 20
8.442101021569272
 40
2
  0
CIRCLE
  5
140
100
AcDbEntity
  8
body-top
  6
ByLayer
 62
    5
370
   -1
100
AcDbCircle
 10
126.5578989784308
 20
7.999999999999943
 40
2
  0
CIRCLE
  5
141
100
AcDbEntity
  8
body-top
  6
ByLayer
 62
    5
370
   -1
100
AcDbCircle
 10
127.0000000000001
 20
66.55789897843067
 40
2
  0
CIRCLE
  5
142
100
AcDbEntity
  8
body-top
  6
ByLayer
 62
    5
370
   -1
100
AcDbCircle
 10
79.00000000000003
 20
42.05807123320494
 40
2
  0
CIRCLE
  5
143
100
AcDbEntity
  8
body-top
  6
ByLayer
 62
    5
370
   -1
100
AcDbCircle
 10
79.00000000000003
 20
32.55807123320494
 40
2
  0
LINE
  5
144
100
AcDbEntity
  8
body-top
  6
CONTINUOUS
 62
    5
370
   -1
100
AcDbLine
 10
132
 20
47.49999999999994
 11
83.50000000000003
 21
47.49999999999994
  0
LINE
  5
145
100
AcDbEntity
  8
body-top
  6
CONTINUOUS
 62
    5
370
   -1
100
AcDbLine
 10
83.50000000000003
 20
47.49999999999994
 11
83.50000000000003
 21
27.49999999999994
  0
LINE
  5
146
100
AcDbEntity
  8
body-top
  6
CONTINUOUS
 62
    5
370
   -1
100
AcDbLine
 10
132
 20
47.49999999999994
 11
132
 21
59.99999999999989
  0
LINE
  5
147
100
AcDbEntity
  8
body-top
  6
CONTINUOUS
 62
    5
370
   -1
100
AcDbLine
 10
132
 20
27.49999999999994
 11
83.50000000000003
 21
27.49999999999994
  0
LINE
  5
148
100
AcDbEntity
  8
body-top
  6
CONTINUOUS
 62
    5
370
   -1
100
AcDbLine
 10
132
 20
27.49999999999994
 11
132
 21
14.99999999999994
  0
LINE
  5
149
100
AcDbEntity
  8
body-front
  6
ByLayer
 62
    5
370
   -1
100
AcDbLine
 10
14.9500000000001
 20
77
 11
14.9500000000001
 21
80
  0
LINE
  5
14A
100
AcDbEntity
  8
body-front
  6
ByLayer
 62
    5
370
   -1
100
AcDbLine
 10
14.9500000000001
 20
77
 11
30.05000000000013
 21
77
  0
LINE
  5
14B
100
AcDbEntity
  8
body-front
  6
ByLayer
 62
    5
370
   -1
100
AcDbLine
 10
60.05000000000013
 20
80
 11
60.05000000000013
 21
77
  0
LINE
  5
14C
100
AcDbEntity
  8
body-front
  6
ByLayer
 62
    5
370
   -1
100
AcDbLine
 10
44.9500000000001
 20
77
 11
60.05000000000013
 21
77
  0
LINE
  5
14D
100
AcDbEntity
  8
body-front
  6
ByLayer
 62
    5
370
   -1
100
AcDbLine
 10
74.9500000000001
 20
77
 11
74.9500000000001
 21
80
  0
LINE
  5
14E
100
AcDbEntity
  8
body-front
  6
ByLayer
 62
    5
370
   -1
100
AcDbLine
 10
120.0500000000001
 20
79.99999999999994
 11
120.0500000000001
 21
76.99999999999994
  0
LINE
  5
14F
100
AcDbEntity
  8
body-front
  6
ByLayer
 62
    5
370
   -1
100
AcDbLine
 10
74.9500000000001
 20
80
 11
60.05000000000013
 21
80
  0
LINE
  5
150
100
AcDbEntity
  8
body-front
  6
ByLayer
 62
    5
370
   -1
100
AcDbLine
 10
30.05000000000001
 20
77
 11
30.05000000000001
 21
80
  0
LINE
  5
151
100
AcDbEntity
  8
body-front
  6
CONTINUOUS
 62
    5
370
   -1
100
AcDbLine
 10
120.0500000000001
 20
79.99999999999994
 11
132.0000000000001
 21
79.99999999999994
  0
LINE
  5
152
100
AcDbEntity
  8
body-front
  6
CONTINUOUS
 62
    5
370
   -1
100
AcDbLine
 10
14.9500000000001
 20
80
 11
3.000000000000114
 21
80
  0
LINE
  5
153
100
AcDbEntity
  8
body-front
  6
ByLayer
 62
    5
370
   -1
100
AcDbLine
 10
90.05000000000013
 20
80
 11
90.05000000000013
 21
77
  0
LINE
  5
154
100
AcDbEntity
  8
body-front
  6
ByLayer
 62
    5
370
   -1
100
AcDbLine
 10
74.9500000000001
 20
77
 11
90.05000000000013
 21
77
  0
LINE
  5
155
100
AcDbEntity
  8
body-front
  6
ByLayer
 62
    5
370
   -1
100
AcDbLine
 10
104.9500000000001
 20
76.99999999999994
 11
104.9500000000001
 21
79.99999999999994
  0
LINE
  5
156
100
AcDbEntity
  8
body-front
  6
ByLayer
 62
    5
370
   -1
100
AcDbLine
 10
104.9500000000001
 20
76.99999999999994
 11
120.0500000000001
 21
76.99999999999994
  0
LINE
  5
157
100
AcDbEntity
  8
body-front
  6
ByLayer
 62
    5
370
   -1
100
AcDbLine
 10
104.9500000000001
 20
79.99999999999994
 11
90.05000000000013
 21
80
  0
LINE
  5
158
100
AcDbEntity
  8
body-front
  6
ByLayer
 62
    5
370
   -1
100
AcDbLine
 10
44.95000000000016
 20
77
 11
44.95000000000016
 21
80
  0
LINE
  5
159
100
AcDbEntity
  8
body-front
  6
ByLayer
 62
    5
370
   -1
100
AcDbLine
 10
44.95000000000016
 20
80
 11
30.05000000000018
 21
80
  0
LINE
  5
15A
100
AcDbEntity
  8
body-front
  6
CONTINUOUS
 62
    5
370
   -1
100
AcDbLine
 10
132.0000000000001
 20
79.99999999999994
 11
132.0000000000002
 21
84.95000000000005
  0
LINE
  5
15B
100
AcDbEntity
  8
body-front
  6
CONTINUOUS
 62
    5
370
   -1
100
AcDbLine
 10
132.0000000000002
 20
100.05
 11
132.0000000000001
 21
104.9999999999999
  0
LINE
  5
15C
100
AcDbEntity
  8
body-front
  6
CONTINUOUS
 62
    5
370
   -1
100
AcDbLine
 10
3.000000000000114
 20
80
 11
3.000000000000057
 21
84.9500000000001
  0
LINE
  5
15D
100
AcDbEntity
  8
body-front
  6
CONTINUOUS
 62
    5
370
   -1
100
AcDbLine
 10
3.000000000000057
 20
100.05
 11
3.000000000000057
 21
105
  0
LINE
  5
15E
100
AcDbEntity
  8
body-back
  6
ByLayer
 62
    5
370
   -1
100
AcDbLine
 10
1.27897692436818e-13
 20
194.95
 11
3.000000000000128
 21
194.95
  0
LINE
  5
15F
100
AcDbEntity
  8
body-back
  6
ByLayer
 62
    5
370
   -1
100
AcDbLine
 10
1.27897692436818e-13
 20
194.95
 11
1.27897692436818e-13
 21
210.05
  0
LINE
  5
160
100
AcDbEntity
  8
body-back
  6
ByLayer
 62
    5
370
   -1
100
AcDbLine
 10
1.27897692436818e-13
 20
210.0499999999999
 11
3.000000000000128
 21
210.0499999999999
  0
LINE
  5
161
100
AcDbEntity
  8
body-back
  6
ByLayer
 62
    5
370
   -1
100
AcDbLine
 10
135.0000000000002
 20
194.9499999999999
 11
132.0000000000002
 21
194.9499999999999
  0
LINE
  5
162
100
AcDbEntity
  8
body-back
  6
ByLayer
 62
    5
370
   -1
100
AcDbLine
 10
135.0000000000002
 20
194.9499999999999
 11
135.0000000000002
 21
210.0499999999999
  0
LINE
  5
163
100
AcDbEntity
  8
body-back
  6
ByLayer
 62
    5
370
   -1
100
AcDbLine
 10
135.0000000000002
 20
210.0499999999998
 11
132.0000000000002
 21
210.0499999999998
  0
LINE
  5
164
100
AcDbEntity
  8
body-back
  6
ByLayer
 62
    5
370
   -1
100
AcDbLine
 10
14.95000000000017
 20
218
 11
14.95000000000017
 21
215
  0
LINE
  5
165
100
AcDbEntity
  8
body-back
  6
ByLayer
 62
    5
370
   -1
100
AcDbLine
 10
14.95000000000017
 20
218
 11
30.05000000000017
 21
218
  0
LINE
  5
166
100
AcDbEntity
  8
body-back
  6
ByLayer
 62
    5
370
   -1
100
AcDbLine
 10
60.05000000000017
 20
215
 11
60.05000000000017
 21
218
  0
LINE
  5
167
100
AcDbEntity
  8
body-back
  6
ByLayer
 62
    5
370
   -1
100
AcDbLine
 10
44.95000000000014
 20
218
 11
60.05000000000017
 21
218
  0
LINE
  5
168
100
AcDbEntity
  8
body-back
  6
ByLayer
 62
    5
370
   -1
100
AcDbLine
 10
74.95000000000014
 20
217.9999999999999
 11
74.95000000000014
 21
214.9999999999999
  0
LINE
  5
169
100
AcDbEntity
  8
body-back
  6
ByLayer
 62
    5
370
   -1
100
AcDbLine
 10
120.0500000000002
 20
214.9999999999999
 11
120.0500000000002
 21
217.9999999999999
  0
LINE
  5
16A
100
AcDbEntity
  8
body-back
  6
ByLayer
 62
    5
370
   -1
100
AcDbLine
 10
74.95000000000014
 20
214.9999999999999
 11
60.05000000000017
 21
215
  0
LINE
  5
16B
100
AcDbEntity
  8
body-back
  6
ByLayer
 62
    5
370
   -1
100
AcDbLine
 10
30.05000000000005
 20
218
 11
30.05000000000005
 21
215
  0
LINE
  5
16C
100
AcDbEntity
  8
body-back
  6
CONTINUOUS
 62
    5
370
   -1
100
AcDbLine
 10
120.0500000000002
 20
214.9999999999999
 11
132.0000000000002
 21
214.9999999999999
  0
LINE
  5
16D
100
AcDbEntity
  8
body-back
  6
CONTINUOUS
 62
    5
370
   -1
100
AcDbLine
 10
14.95000000000017
 20
215
 11
3.000000000000185
 21
215
  0
LINE
  5
16E
100
AcDbEntity
  8
body-back
  6
ByLayer
 62
    5
370
   -1
100
AcDbLine
 10
90.0500000000002
 20
214.9999999999999
 11
90.0500000000002
 21
217.9999999999999
  0
LINE
  5
16F
100
AcDbEntity
  8
body-back
  6
ByLayer
 62
    5
370
   -1
100
AcDbLine
 10
74.95000000000014
 20
217.9999999999999
 11
90.0500000000002
 21
217.9999999999999
  0
LINE
  5
170
100
AcDbEntity
  8
body-back
  6
ByLayer
 62
    5
370
   -1
100
AcDbLine
 10
104.9500000000002
 20
217.9999999999999
 11
104.9500000000002
 21
214.9999999999999
  0
LINE
  5
171
100
AcDbEntity
  8
body-back
  6
ByLayer
 62
    5
370
   -1
100
AcDbLine
 10
104.9500000000002
 20
217.9999999999999
 11
120.0500000000002
 21
217.9999999999999
  0
LINE
  5
172
100
AcDbEntity
  8
body-back
  6
ByLayer
 62
    5
370
   -1
100
AcDbLine
 10
104.9500000000002
 20
214.9999999999999
 11
90.0500000000002
 21
214.9999999999999
  0
LINE
  5
173
100
AcDbEntity
  8
body-back
  6
ByLayer
 62
    5
370
   -1
100
AcDbLine
 10
44.9500000000002
 20
218
 11
44.9500000000002
 21
215
  0
LINE
  5
174
100
AcDbEntity
  8
body-back
  6
ByLayer
 62
    5
370
   -1
100
AcDbLine
 10
44.9500000000002
 20
215
 11
30.05000000000022
 21
215
  0
LINE
  5
175
100
AcDbEntity
  8
body-back
  6
CONTINUOUS
 62
    5
370
   -1
100
AcDbLine
 10
3.000000000000128
 20
190
 11
3.000000000000128
 21
194.95
  0
LINE
  5
176
100
AcDbEntity
  8
body-back
  6
CONTINUOUS
 62
    5
370
   -1
100
AcDbLine
 10
3.000000000000128
 20
210.0499999999999
 11
3.000000000000185
 21
215
  0
LINE
  5
177
100
AcDbEntity
  8
body-back
  6
CONTINUOUS
 62
    5
370
   -1
100
AcDbLine
 10
132.0000000000002
 20
210.0499999999998
 11
132.0000000000002
 21
214.9999999999999
  0
LINE
  5
178
100
AcDbEntity
  8
body-back
  6
CONTINUOUS
 62
    5
370
   -1
100
AcDbLine
 10
132.0000000000001
 20
189.9999999999999
 11
132.0000000000002
 21
194.9499999999999
  0
LINE
  5
179
100
AcDbEntity
  8
body-back
  6
ByLayer
 62
    5
370
   -1
100
AcDbLine
 10
14.95000000000017
 20
187
 11
30.05000000000022
 21
187
  0
LINE
  5
17A
100
AcDbEntity
  8
body-back
  6
ByLayer
 62
    5
370
   -1
100
AcDbLine
 10
44.9500000000002
 20
187
 11
60.05000000000022
 21
187
  0
LINE
  5
17B
100
AcDbEntity
  8
body-back
  6
ByLayer
 62
    5
370
   -1
100
AcDbLine
 10
74.9500000000002
 20
187
 11
90.05000000000022
 21
186.9999999999999
  0
LINE
  5
17C
100
AcDbEntity
  8
body-back
  6
ByLayer
 62
    5
370
   -1
100
AcDbLine
 10
104.9500000000002
 20
186.9999999999999
 11
120.0500000000002
 21
186.9999999999999
  0
ENDSEC
  0
SECTION
  2
OBJECTS
  0
DICTIONARY
  5
C
330
0
100
AcDbDictionary
281
    1
  3
ACAD_GROUP
350
D
  0
DICTIONARY
  5
D
330
C
100
AcDbDictionary
281
    1
  0
ENDSEC
  0
EOF
