999
dxfrw 0.6.3
  0
SECTION
  2
HEADER
  9
$ACADVER
  1
AC1018
  9
$DWGCODEPAGE
  3
ANSI_932
  9
$INSBASE
 10
0
 20
0
 30
0
  9
$EXTMIN
 10
10000000000
 20
10000000000
 30
0
  9
$EXTMAX
 10
-10000000000
 20
-10000000000
 30
0
  9
$LIMMIN
 10
0
 20
0
  9
$LIMMAX
 10
12
 20
9
  9
$ORTHOMODE
 70
    0
  9
$REGENMODE
 70
    1
  9
$FILLMODE
 70
    1
  9
$QTEXTMODE
 70
    0
  9
$MIRRTEXT
 70
    1
  9
$LTSCALE
 40
1
  9
$ATTMODE
 70
    1
  9
$TEXTSIZE
 40
0.2
  9
$TRACEWID
 40
0.05
  9
$TEXTSTYLE
  7
Standard
  9
$CLAYER
  8
0
  9
$CELTYPE
  6
ByLayer
  9
$CECOLOR
 62
  256
  9
$CELTSCALE
 40
1
  9
$DISPSILH
 70
    0
  9
$DIMSCALE
 40
10
  9
$DIMASZ
 40
0.18
  9
$DIMEXO
 40
0.0625
  9
$DIMDLI
 40
0.38
  9
$DIMRND
 40
0
  9
$DIMDLE
 40
0
  9
$DIMEXE
 40
0.18
  9
$DIMTP
 40
0
  9
$DIMTM
 40
0
  9
$DIMTXT
 40
0.18
  9
$DIMCEN
 40
0.09
  9
$DIMTSZ
 40
0
  9
$DIMTOL
 70
    0
  9
$DIMLIM
 70
    0
  9
$DIMTIH
 70
    1
  9
$DIMTOH
 70
    1
  9
$DIMSE1
 70
    0
  9
$DIMSE2
 70
    0
  9
$DIMTAD
 70
    0
  9
$DIMZIN
 70
    0
  9
$DIMBLK
  1

  9
$DIMASO
 70
    1
  9
$DIMSHO
 70
    1
  9
$DIMPOST
  1

  9
$DIMAPOST
  1

  9
$DIMALT
 70
    0
  9
$DIMALTD
 70
    2
  9
$DIMALTF
 40
25.4
  9
$DIMLFAC
 40
1
  9
$DIMTOFL
 70
    0
  9
$DIMTVP
 40
0
  9
$DIMTIX
 70
    0
  9
$DIMSOXD
 70
    0
  9
$DIMSAH
 70
    0
  9
$DIMBLK1
  1

  9
$DIMBLK2
  1

  9
$DIMSTYLE
  2
Standard
  9
$DIMCLRD
 70
    0
  9
$DIMCLRE
 70
    0
  9
$DIMCLRT
 70
    0
  9
$DIMTFAC
 40
1
  9
$DIMGAP
 40
0.09
  9
$DIMJUST
 70
    0
  9
$DIMSD1
 70
    0
  9
$DIMSD2
 70
    0
  9
$DIMTOLJ
 70
    1
  9
$DIMTZIN
 70
    0
  9
$DIMALTZ
 70
    0
  9
$DIMALTTZ
 70
    0
  9
$DIMUPT
 70
    0
  9
$DIMDEC
 70
    4
  9
$DIMTDEC
 70
    4
  9
$DIMALTU
 70
    2
  9
$DIMALTTD
 70
    2
  9
$DIMTXSTY
  7
standard
  9
$DIMAUNIT
 70
    0
  9
$DIMADEC
 70
    0
  9
$DIMALTRND
 40
0
  9
$DIMAZIN
 70
    0
  9
$DIMDSEP
 70
    0
  9
$DIMATFIT
 70
    3
  9
$DIMFRAC
 70
    0
  9
$DIMLDRBLK
  1

  9
$DIMLUNIT
 70
    2
  9
$DIMLWD
 70
   -2
  9
$DIMLWE
 70
   -2
  9
$DIMTMOVE
 70
    0
  9
$LUNITS
 70
    2
  9
$LUPREC
 70
    4
  9
$SKETCHINC
 40
0.1
  9
$FILLETRAD
 40
0.5
  9
$AUNITS
 70
    0
  9
$AUPREC
 70
    0
  9
$MENU
  1
.
  9
$ELEVATION
 40
0
  9
$PELEVATION
 40
0
  9
$THICKNESS
 40
0
  9
$LIMCHECK
 70
    0
  9
$CHAMFERA
 40
0.5
  9
$CHAMFERB
 40
0.5
  9
$CHAMFERC
 40
1
  9
$CHAMFERD
 40
0
  9
$SKPOLY
 70
    0
  9
$USRTIMER
 70
    1
  9
$ANGBASE
 50
0
  9
$ANGDIR
 70
    0
  9
$PDMODE
 70
    0
  9
$PDSIZE
 40
0
  9
$PLINEWID
 40
0
  9
$SPLFRAME
 70
    0
  9
$SPLINETYPE
 70
    6
  9
$SPLINESEGS
 70
    8
  9
$HANDSEED
  5
20000
  9
$SURFTAB1
 70
    6
  9
$SURFTAB2
 70
    6
  9
$SURFTYPE
 70
    6
  9
$SURFU
 70
    6
  9
$SURFV
 70
    6
  9
$UCSBASE
  2

  9
$UCSNAME
  2

  9
$UCSORG
 10
0
 20
0
 30
0
  9
$UCSXDIR
 10
1
 20
0
 30
0
  9
$UCSYDIR
 10
0
 20
1
 30
0
  9
$UCSORTHOREF
  2

  9
$UCSORTHOVIEW
 70
    0
  9
$UCSORGTOP
 10
0
 20
0
 30
0
  9
$UCSORGBOTTOM
 10
0
 20
0
 30
0
  9
$UCSORGLEFT
 10
0
 20
0
 30
0
  9
$UCSORGRIGHT
 10
0
 20
0
 30
0
  9
$UCSORGFRONT
 10
0
 20
0
 30
0
  9
$UCSORGBACK
 10
0
 20
0
 30
0
  9
$PUCSBASE
  2

  9
$PUCSNAME
  2

  9
$PUCSORG
 10
0
 20
0
 30
0
  9
$PUCSXDIR
 10
1
 20
0
 30
0
  9
$PUCSYDIR
 10
0
 20
1
 30
0
  9
$PUCSORTHOREF
  2

  9
$PUCSORTHOVIEW
 70
    0
  9
$PUCSORGTOP
 10
0
 20
0
 30
0
  9
$PUCSORGBOTTOM
 10
0
 20
0
 30
0
  9
$PUCSORGLEFT
 10
0
 20
0
 30
0
  9
$PUCSORGRIGHT
 10
0
 20
0
 30
0
  9
$PUCSORGFRONT
 10
0
 20
0
 30
0
  9
$PUCSORGBACK
 10
0
 20
0
 30
0
  9
$USERI1
 70
    0
  9
$USERI2
 70
    0
  9
$USERI3
 70
    0
  9
$USERI4
 70
    0
  9
$USERI5
 70
    0
  9
$USERR1
 40
0
  9
$USERR2
 40
0
  9
$USERR3
 40
0
  9
$USERR4
 40
0
  9
$USERR5
 40
0
  9
$WORLDVIEW
 70
    1
  9
$SHADEDGE
 70
    3
  9
$SHADEDIF
 70
   70
  9
$TILEMODE
 70
    1
  9
$MAXACTVP
 70
   64
  9
$PINSBASE
 10
0
 20
0
 30
0
  9
$PLIMCHECK
 70
    0
  9
$PEXTMIN
 10
1e+20
 20
1e+20
 30
1e+20
  9
$PEXTMAX
 10
-1e+20
 20
-1e+20
 30
-1e+20
  9
$GRIDMODE
 70
    0
  9
$SNAPSTYLE
 70
    0
  9
$GRIDUNIT
 10
0
 20
0
  9
$PLIMMIN
 10
0
 20
0
  9
$PLIMMAX
 10
0.018599912
 20
0.013949934
  9
$UNITMODE
 70
    0
  9
$VISRETAIN
 70
    1
  9
$PLINEGEN
 70
    0
  9
$PSLTSCALE
 70
    1
  9
$TREEDEPTH
 70
 3020
  9
$CMLSTYLE
  2
Standard
  9
$CMLJUST
 70
    0
  9
$CMLSCALE
 40
1
  9
$PROXYGRAPHICS
 70
    1
  9
$MEASUREMENT
 70
    0
  9
$CELWEIGHT
370
   -1
  9
$ENDCAPS
280
    0
  9
$JOINSTYLE
280
    0
  9
$LWDISPLAY
290
    1
  9
$INSUNITS
 70
    1
  9
$HYPERLINKBASE
  1

  9
$STYLESHEET
  1

  9
$XEDIT
290
    1
  9
$CEPSNTYPE
380
    0
  9
$PSTYLEMODE
290
    1
  9
$EXTNAMES
290
    1
  9
$PSVPSCALE
 40
0
  9
$OLESTARTUP
290
    0
  9
$SORTENTS
280
  127
  9
$INDEXCTL
280
    0
  9
$HIDETEXT
280
    1
  9
$XCLIPFRAME
290
    0
  9
$HALOGAP
280
    0
  9
$OBSCOLOR
 70
  257
  9
$OBSLTYPE
280
    0
  9
$INTERSECTIONDISPLAY
280
    0
  9
$INTERSECTIONCOLOR
 70
  257
  9
$DIMASSOC
280
    2
  9
$PROJECTNAME
  1

  0
ENDSEC
  0
SECTION
  2
CLASSES
  0
ENDSEC
  0
SECTION
  2
TABLES
  0
TABLE
  2
VPORT
  5
8
330
0
100
AcDbSymbolTable
 70
    1
  0
VPORT
  5
31
330
2
100
AcDbSymbolTableRecord
100
AcDbViewportTableRecord
  2
*ACTIVE
 70
    0
 10
0
 20
0
 11
1
 21
1
 12
182.0658781915839
 22
56.42401990802239
 13
0
 23
0
 14
10
 24
10
 15
10
 25
10
 16
0
 26
0
 36
1
 17
0
 27
0
 37
0
 40
217.1668673204118
 41
1.601208459214502
 42
50
 43
0
 44
0
 50
0
 51
0
 71
    0
 72
  100
 73
    1
 74
    3
 75
    0
 76
    0
 77
    0
 78
    0
281
    0
 65
    1
110
0
120
0
130
0
111
1
121
0
131
0
112
0
122
1
132
0
 79
    0
146
0
  0
ENDTAB
  0
TABLE
  2
LTYPE
  5
5
330
0
100
AcDbSymbolTable
 70
    4
  0
LTYPE
  5
14
330
5
100
AcDbSymbolTableRecord
100
AcDbLinetypeTableRecord
  2
ByBlock
 70
    0
  3

 72
   65
 73
    0
 40
0
  0
LTYPE
  5
15
330
5
100
AcDbSymbolTableRecord
100
AcDbLinetypeTableRecord
  2
ByLayer
 70
    0
  3

 72
   65
 73
    0
 40
0
  0
LTYPE
  5
16
330
5
100
AcDbSymbolTableRecord
100
AcDbLinetypeTableRecord
  2
Continuous
 70
    0
  3
Solid line
 72
   65
 73
    0
 40
0
  0
LTYPE
  5
32
330
5
100
AcDbSymbolTableRecord
100
AcDbLinetypeTableRecord
  2
DOT
 70
    0
  3
Dot . . . . . . . . . . . . . . . . . . . . . .
 72
   65
 73
    2
 40
6.35
 49
0
 74
    0
 49
-6.35
 74
    0
  0
LTYPE
  5
33
330
5
100
AcDbSymbolTableRecord
100
AcDbLinetypeTableRecord
  2
DOTTINY
 70
    0
  3
Dot (.15x) .....................................
 72
   65
 73
    2
 40
0.9525
 49
0
 74
    0
 49
-0.9525
 74
    0
  0
LTYPE
  5
34
330
5
100
AcDbSymbolTableRecord
100
AcDbLinetypeTableRecord
  2
DOT2
 70
    0
  3
Dot (.5x) .....................................
 72
   65
 73
    2
 40
3.175
 49
0
 74
    0
 49
-3.175
 74
    0
  0
LTYPE
  5
35
330
5
100
AcDbSymbolTableRecord
100
AcDbLinetypeTableRecord
  2
DOTX2
 70
    0
  3
Dot (2x) .  .  .  .  .  .  .  .  .  .  .  .  .
 72
   65
 73
    2
 40
12.7
 49
0
 74
    0
 49
-12.7
 74
    0
  0
LTYPE
  5
36
330
5
100
AcDbSymbolTableRecord
100
AcDbLinetypeTableRecord
  2
DASHED
 70
    0
  3
Dashed _ _ _ _ _ _ _ _ _ _ _ _ _ _ _ _ _
 72
   65
 73
    2
 40
19.05
 49
12.7
 74
    0
 49
-6.35
 74
    0
  0
LTYPE
  5
37
330
5
100
AcDbSymbolTableRecord
100
AcDbLinetypeTableRecord
  2
DASHEDTINY
 70
    0
  3
Dashed (.15x) _ _ _ _ _ _ _ _ _ _ _ _ _ _ _ _ _
 72
   65
 73
    2
 40
2.8575
 49
1.905
 74
    0
 49
-0.9525
 74
    0
  0
LTYPE
  5
38
330
5
100
AcDbSymbolTableRecord
100
AcDbLinetypeTableRecord
  2
DASHED2
 70
    0
  3
Dashed (.5x) _ _ _ _ _ _ _ _ _ _ _ _ _ _ _ _ _
 72
   65
 73
    2
 40
9.524999999999999
 49
6.35
 74
    0
 49
-3.175
 74
    0
  0
LTYPE
  5
39
330
5
100
AcDbSymbolTableRecord
100
AcDbLinetypeTableRecord
  2
DASHEDX2
 70
    0
  3
Dashed (2x) ____  ____  ____  ____  ____  ___
 72
   65
 73
    2
 40
38.09999999999999
 49
25.4
 74
    0
 49
-12.7
 74
    0
  0
LTYPE
  5
3A
330
5
100
AcDbSymbolTableRecord
100
AcDbLinetypeTableRecord
  2
DASHDOT
 70
    0
  3
Dash dot __ . __ . __ . __ . __ . __ . __ . __
 72
   65
 73
    4
 40
25.4
 49
12.7
 74
    0
 49
-6.35
 74
    0
 49
0
 74
    0
 49
-6.35
 74
    0
  0
LTYPE
  5
3B
330
5
100
AcDbSymbolTableRecord
100
AcDbLinetypeTableRecord
  2
DASHDOTTINY
 70
    0
  3
Dash dot (.15x) _._._._._._._._._._._._._._._.
 72
   65
 73
    4
 40
3.81
 49
1.905
 74
    0
 49
-0.9525
 74
    0
 49
0
 74
    0
 49
-0.9525
 74
    0
  0
LTYPE
  5
3C
330
5
100
AcDbSymbolTableRecord
100
AcDbLinetypeTableRecord
  2
DASHDOT2
 70
    0
  3
Dash dot (.5x) _._._._._._._._._._._._._._._.
 72
   65
 73
    4
 40
12.7
 49
6.35
 74
    0
 49
-3.175
 74
    0
 49
0
 74
    0
 49
-3.175
 74
    0
  0
LTYPE
  5
3D
330
5
100
AcDbSymbolTableRecord
100
AcDbLinetypeTableRecord
  2
DASHDOTX2
 70
    0
  3
Dash dot (2x) ____  .  ____  .  ____  .  ___
 72
   65
 73
    4
 40
50.8
 49
25.4
 74
    0
 49
-12.7
 74
    0
 49
0
 74
    0
 49
-12.7
 74
    0
  0
LTYPE
  5
3E
330
5
100
AcDbSymbolTableRecord
100
AcDbLinetypeTableRecord
  2
DIVIDE
 70
    0
  3
Divide ____ . . ____ . . ____ . . ____ . . ____
 72
   65
 73
    6
 40
31.75
 49
12.7
 74
    0
 49
-6.35
 74
    0
 49
0
 74
    0
 49
-6.35
 74
    0
 49
0
 74
    0
 49
-6.35
 74
    0
  0
LTYPE
  5
3F
330
5
100
AcDbSymbolTableRecord
100
AcDbLinetypeTableRecord
  2
DIVIDETINY
 70
    0
  3
Divide (.15x) __..__..__..__..__..__..__..__.._
 72
   65
 73
    6
 40
4.7625
 49
1.905
 74
    0
 49
-0.9525
 74
    0
 49
0
 74
    0
 49
-0.9525
 74
    0
 49
0
 74
    0
 49
-0.9525
 74
    0
  0
LTYPE
  5
40
330
5
100
AcDbSymbolTableRecord
100
AcDbLinetypeTableRecord
  2
DIVIDE2
 70
    0
  3
Divide (.5x) __..__..__..__..__..__..__..__.._
 72
   65
 73
    6
 40
15.875
 49
6.35
 74
    0
 49
-3.175
 74
    0
 49
0
 74
    0
 49
-3.175
 74
    0
 49
0
 74
    0
 49
-3.175
 74
    0
  0
LTYPE
  5
41
330
5
100
AcDbSymbolTableRecord
100
AcDbLinetypeTableRecord
  2
DIVIDEX2
 70
    0
  3
Divide (2x) ________  .  .  ________  .  .  _
 72
   65
 73
    6
 40
63.5
 49
25.4
 74
    0
 49
-12.7
 74
    0
 49
0
 74
    0
 49
-12.7
 74
    0
 49
0
 74
    0
 49
-12.7
 74
    0
  0
LTYPE
  5
42
330
5
100
AcDbSymbolTableRecord
100
AcDbLinetypeTableRecord
  2
BORDER
 70
    0
  3
Border __ __ . __ __ . __ __ . __ __ . __ __ .
 72
   65
 73
    6
 40
44.45
 49
12.7
 74
    0
 49
-6.35
 74
    0
 49
12.7
 74
    0
 49
-6.35
 74
    0
 49
0
 74
    0
 49
-6.35
 74
    0
  0
LTYPE
  5
43
330
5
100
AcDbSymbolTableRecord
100
AcDbLinetypeTableRecord
  2
BORDERTINY
 70
    0
  3
Border (.15x) __.__.__.__.__.__.__.__.__.__.__.
 72
   65
 73
    6
 40
6.6675
 49
1.905
 74
    0
 49
-0.9525
 74
    0
 49
1.905
 74
    0
 49
-0.9525
 74
    0
 49
0
 74
    0
 49
-0.9525
 74
    0
  0
LTYPE
  5
44
330
5
100
AcDbSymbolTableRecord
100
AcDbLinetypeTableRecord
  2
BORDER2
 70
    0
  3
Border (.5x) __.__.__.__.__.__.__.__.__.__.__.
 72
   65
 73
    6
 40
22.225
 49
6.35
 74
    0
 49
-3.175
 74
    0
 49
6.35
 74
    0
 49
-3.175
 74
    0
 49
0
 74
    0
 49
-3.175
 74
    0
  0
LTYPE
  5
45
330
5
100
AcDbSymbolTableRecord
100
AcDbLinetypeTableRecord
  2
BORDERX2
 70
    0
  3
Border (2x) ____  ____  .  ____  ____  .  ___
 72
   65
 73
    6
 40
88.89999999999999
 49
25.4
 74
    0
 49
-12.7
 74
    0
 49
25.4
 74
    0
 49
-12.7
 74
    0
 49
0
 74
    0
 49
-12.7
 74
    0
  0
LTYPE
  5
46
330
5
100
AcDbSymbolTableRecord
100
AcDbLinetypeTableRecord
  2
CENTER
 70
    0
  3
Center ____ _ ____ _ ____ _ ____ _ ____ _ ____
 72
   65
 73
    4
 40
50.8
 49
31.75
 74
    0
 49
-6.35
 74
    0
 49
6.35
 74
    0
 49
-6.35
 74
    0
  0
LTYPE
  5
47
330
5
100
AcDbSymbolTableRecord
100
AcDbLinetypeTableRecord
  2
CENTERTINY
 70
    0
  3
Center (.15x) ___ _ ___ _ ___ _ ___ _ ___ _ ___
 72
   65
 73
    4
 40
7.619999999999999
 49
4.7625
 74
    0
 49
-0.9525
 74
    0
 49
0.9525
 74
    0
 49
-0.9525
 74
    0
  0
LTYPE
  5
48
330
5
100
AcDbSymbolTableRecord
100
AcDbLinetypeTableRecord
  2
CENTER2
 70
    0
  3
Center (.5x) ___ _ ___ _ ___ _ ___ _ ___ _ ___
 72
   65
 73
    4
 40
28.575
 49
19.05
 74
    0
 49
-3.175
 74
    0
 49
3.175
 74
    0
 49
-3.175
 74
    0
  0
LTYPE
  5
49
330
5
100
AcDbSymbolTableRecord
100
AcDbLinetypeTableRecord
  2
CENTERX2
 70
    0
  3
Center (2x) ________  __  ________  __  _____
 72
   65
 73
    4
 40
101.6
 49
63.5
 74
    0
 49
-12.7
 74
    0
 49
12.7
 74
    0
 49
-12.7
 74
    0
  0
ENDTAB
  0
TABLE
  2
LAYER
  5
2
330
0
100
AcDbSymbolTable
 70
    1
  0
LAYER
  5
10
330
2
100
AcDbSymbolTableRecord
100
AcDbLayerTableRecord
  2
0
 70
    0
 62
    7
  6
CONTINUOUS
370
   -3
390
F
  0
LAYER
  5
4A
330
2
100
AcDbSymbolTableRecord
100
AcDbLayerTableRecord
  2
ADD your design here
 70
    0
 62
    7
  6
CONTINUOUS
370
   -3
390
F
  0
ENDTAB
  0
TABLE
  2
STYLE
  5
3
330
0
100
AcDbSymbolTable
 70
    3
  0
STYLE
  5
4B
330
2
100
AcDbSymbolTableRecord
100
AcDbTextStyleTableRecord
  2
Standard
 70
    0
 40
0
 41
1
 50
0
 71
    0
 42
1
  3
txt
  4

  0
ENDTAB
  0
TABLE
  2
VIEW
  5
6
330
0
100
AcDbSymbolTable
 70
    0
  0
ENDTAB
  0
TABLE
  2
UCS
  5
7
330
0
100
AcDbSymbolTable
 70
    0
  0
ENDTAB
  0
TABLE
  2
APPID
  5
9
330
0
100
AcDbSymbolTable
 70
    1
  0
APPID
  5
12
330
9
100
AcDbSymbolTableRecord
100
AcDbRegAppTableRecord
  2
ACAD
 70
    0
  0
APPID
  5
4C
330
9
100
AcDbSymbolTableRecord
100
AcDbRegAppTableRecord
  2
LibreCad
 70
    0
  0
ENDTAB
  0
TABLE
  2
DIMSTYLE
  5
A
330
0
100
AcDbSymbolTable
 70
    1
100
AcDbDimStyleTable
 71
    1
  0
DIMSTYLE
105
4D
330
A
100
AcDbSymbolTableRecord
100
AcDbDimStyleTableRecord
  2
Standard
 70
    0
 40
10
 41
0.18
 42
0.0625
 43
0.38
 44
0.18
 45
0
 46
0
 47
0
 48
0
 49
0.04
140
0.18
141
0.09
142
0
143
25.4
144
1
145
0
146
1
147
0.09
148
0
 71
    0
 72
    0
 73
    1
 74
    1
 75
    0
 76
    0
 77
    0
 78
    0
 79
    0
170
    0
171
    2
172
    0
173
    0
174
    0
175
    0
176
    0
177
    0
178
    0
179
    0
271
    4
272
    4
273
    2
274
    2
275
    0
276
    0
277
    2
278
    0
279
    0
280
    0
281
    0
282
    0
283
    1
284
    0
285
    0
286
    0
288
    0
289
    3
340
standard
341

371
   -2
372
   -2
  0
ENDTAB
  0
TABLE
  2
BLOCK_RECORD
  5
1
330
0
100
AcDbSymbolTable
 70
    2
  0
BLOCK_RECORD
  5
1F
330
1
100
AcDbSymbolTableRecord
100
AcDbBlockTableRecord
  2
*Model_Space
  0
BLOCK_RECORD
  5
1E
330
1
100
AcDbSymbolTableRecord
100
AcDbBlockTableRecord
  2
*Paper_Space
  0
BLOCK_RECORD
  5
4E
330
1
100
AcDbSymbolTableRecord
100
AcDbBlockTableRecord
  2
block 2
  0
BLOCK_RECORD
  5
51
330
1
100
AcDbSymbolTableRecord
100
AcDbBlockTableRecord
  2
block 3
  0
BLOCK_RECORD
  5
54
330
1
100
AcDbSymbolTableRecord
100
AcDbBlockTableRecord
  2
block 4
  0
BLOCK_RECORD
  5
57
330
1
100
AcDbSymbolTableRecord
100
AcDbBlockTableRecord
  2
block 5
  0
BLOCK_RECORD
  5
5A
330
1
100
AcDbSymbolTableRecord
100
AcDbBlockTableRecord
  2
block 6
  0
BLOCK_RECORD
  5
5D
330
1
100
AcDbSymbolTableRecord
100
AcDbBlockTableRecord
  2
block 7
  0
BLOCK_RECORD
  5
60
330
1
100
AcDbSymbolTableRecord
100
AcDbBlockTableRecord
  2
block 8
  0
BLOCK_RECORD
  5
63
330
1
100
AcDbSymbolTableRecord
100
AcDbBlockTableRecord
  2
block 9
  0
BLOCK_RECORD
  5
66
330
1
100
AcDbSymbolTableRecord
100
AcDbBlockTableRecord
  2
block 10
  0
BLOCK_RECORD
  5
69
330
1
100
AcDbSymbolTableRecord
100
AcDbBlockTableRecord
  2
block 11
  0
ENDTAB
  0
ENDSEC
  0
SECTION
  2
BLOCKS
  0
BLOCK
  5
20
330
1F
100
AcDbEntity
  8
0
100
AcDbBlockBegin
  2
*Model_Space
 70
    0
 10
0
 20
0
 30
0
  3
*Model_Space
  1

  0
ENDBLK
  5
21
330
1F
100
AcDbEntity
  8
0
100
AcDbBlockEnd
  0
BLOCK
  5
1C
330
1B
100
AcDbEntity
  8
0
100
AcDbBlockBegin
  2
*Paper_Space
 70
    0
 10
0
 20
0
 30
0
  3
*Paper_Space
  1

  0
ENDBLK
  5
1D
330
1F
100
AcDbEntity
  8
0
100
AcDbBlockEnd
  0
BLOCK
  5
4F
330
4E
100
AcDbEntity
  8
0
100
AcDbBlockBegin
  2
block 2
 70
    0
 10
0
 20
0
  3
block 2
  1

  0
ENDBLK
  5
50
330
4E
100
AcDbEntity
  8
0
100
AcDbBlockEnd
  0
BLOCK
  5
52
330
51
100
AcDbEntity
  8
0
100
AcDbBlockBegin
  2
block 3
 70
    0
 10
0
 20
0
  3
block 3
  1

  0
ENDBLK
  5
53
330
51
100
AcDbEntity
  8
0
100
AcDbBlockEnd
  0
BLOCK
  5
55
330
54
100
AcDbEntity
  8
0
100
AcDbBlockBegin
  2
block 4
 70
    0
 10
0
 20
0
  3
block 4
  1

  0
ENDBLK
  5
56
330
54
100
AcDbEntity
  8
0
100
AcDbBlockEnd
  0
BLOCK
  5
58
330
57
100
AcDbEntity
  8
0
100
AcDbBlockBegin
  2
block 5
 70
    0
 10
0
 20
0
  3
block 5
  1

  0
ENDBLK
  5
59
330
57
100
AcDbEntity
  8
0
100
AcDbBlockEnd
  0
BLOCK
  5
5B
330
5A
100
AcDbEntity
  8
0
100
AcDbBlockBegin
  2
block 6
 70
    0
 10
0
 20
0
  3
block 6
  1

  0
ENDBLK
  5
5C
330
5A
100
AcDbEntity
  8
0
100
AcDbBlockEnd
  0
BLOCK
  5
5E
330
5D
100
AcDbEntity
  8
0
100
AcDbBlockBegin
  2
block 7
 70
    0
 10
0
 20
0
  3
block 7
  1

  0
ENDBLK
  5
5F
330
5D
100
AcDbEntity
  8
0
100
AcDbBlockEnd
  0
BLOCK
  5
61
330
60
100
AcDbEntity
  8
0
100
AcDbBlockBegin
  2
block 8
 70
    0
 10
0
 20
0
  3
block 8
  1

  0
ENDBLK
  5
62
330
60
100
AcDbEntity
  8
0
100
AcDbBlockEnd
  0
BLOCK
  5
64
330
63
100
AcDbEntity
  8
0
100
AcDbBlockBegin
  2
block 9
 70
    0
 10
0
 20
0
  3
block 9
  1

  0
ENDBLK
  5
65
330
63
100
AcDbEntity
  8
0
100
AcDbBlockEnd
  0
BLOCK
  5
67
330
66
100
AcDbEntity
  8
0
100
AcDbBlockBegin
  2
block 10
 70
    0
 10
0
 20
0
  3
block 10
  1

  0
ENDBLK
  5
68
330
66
100
AcDbEntity
  8
0
100
AcDbBlockEnd
  0
BLOCK
  5
6A
330
69
100
AcDbEntity
  8
0
100
AcDbBlockBegin
  2
block 11
 70
    0
 10
0
 20
0
  3
block 11
  1

  0
ENDBLK
  5
6B
330
69
100
AcDbEntity
  8
0
100
AcDbBlockEnd
  0
ENDSEC
  0
SECTION
  2
ENTITIES
  0
LWPOLYLINE
  5
6C
100
AcDbEntity
  8
ADD your design here
  6
ByLayer
 62
  256
370
    0
100
AcDbPolyline
 90
    2
 70
    0
 43
0
 10
119.5511867648171
 20
72.69151473877157
 10
109.5511080997824
 20
72.69151473877157
  0
LWPOLYLINE
  5
6D
100
AcDbEntity
  8
ADD your design here
  6
ByLayer
 62
  256
370
    0
100
AcDbPolyline
 90
    2
 70
    0
 43
0
 10
109.5511080997824
 20
72.69151473877157
 10
109.5511080997824
 20
75.69150388732713
  0
LWPOLYLINE
  5
6E
100
AcDbEntity
  8
ADD your design here
  6
ByLayer
 62
  256
370
    0
100
AcDbPolyline
 90
    2
 70
    0
 43
0
 10
109.5511080997824
 20
75.69150388732713
 10
94.55116235700459
 20
75.69150388732713
  0
LWPOLYLINE
  5
6F
100
AcDbEntity
  8
ADD your design here
  6
ByLayer
 62
  256
370
    0
100
AcDbPolyline
 90
    2
 70
    0
 43
0
 10
94.55116235700459
 20
75.69150388732713
 10
94.55116235700459
 20
72.69151473877157
  0
LWPOLYLINE
  5
70
100
AcDbEntity
  8
ADD your design here
  6
ByLayer
 62
  256
370
    0
100
AcDbPolyline
 90
    2
 70
    0
 43
0
 10
84.55108369196988
 20
72.69151473877157
 10
84.55108369196988
 20
75.69150388732713
  0
LWPOLYLINE
  5
71
100
AcDbEntity
  8
ADD your design here
  6
ByLayer
 62
  256
370
    0
100
AcDbPolyline
 90
    2
 70
    0
 43
0
 10
84.55108369196988
 20
75.69150388732713
 10
69.55113794919208
 20
75.69150388732713
  0
LWPOLYLINE
  5
72
100
AcDbEntity
  8
ADD your design here
  6
ByLayer
 62
  256
370
    0
100
AcDbPolyline
 90
    2
 70
    0
 43
0
 10
69.55113794919208
 20
75.69150388732713
 10
69.55113794919208
 20
72.69151473877157
  0
LWPOLYLINE
  5
73
100
AcDbEntity
  8
ADD your design here
  6
ByLayer
 62
  256
370
    0
100
AcDbPolyline
 90
    2
 70
    0
 43
0
 10
59.55105928415739
 20
72.69151473877157
 10
59.55105928415739
 20
75.69150388732713
  0
LWPOLYLINE
  5
74
100
AcDbEntity
  8
ADD your design here
  6
ByLayer
 62
  256
370
    0
100
AcDbPolyline
 90
    2
 70
    0
 43
0
 10
59.55105928415739
 20
75.69150388732713
 10
44.55111354137961
 20
75.69150388732713
  0
LWPOLYLINE
  5
75
100
AcDbEntity
  8
ADD your design here
  6
ByLayer
 62
  256
370
    0
100
AcDbPolyline
 90
    2
 70
    0
 43
0
 10
44.55111354137961
 20
75.69150388732713
 10
44.55111354137961
 20
72.69151473877157
  0
LWPOLYLINE
  5
76
100
AcDbEntity
  8
ADD your design here
  6
ByLayer
 62
  256
370
    0
100
AcDbPolyline
 90
    2
 70
    0
 43
0
 10
94.55116235700459
 20
72.69151473877157
 10
84.55108369196988
 20
72.69151473877157
  0
LWPOLYLINE
  5
77
100
AcDbEntity
  8
ADD your design here
  6
ByLayer
 62
  256
370
    0
100
AcDbPolyline
 90
    2
 70
    0
 43
0
 10
69.55113794919208
 20
72.69151473877157
 10
59.55105928415739
 20
72.69151473877157
  0
LWPOLYLINE
  5
78
100
AcDbEntity
  8
ADD your design here
  6
ByLayer
 62
  256
370
    0
100
AcDbPolyline
 90
    2
 70
    0
 43
0
 10
44.55111354137961
 20
72.69151473877157
 10
34.55120713111916
 20
72.69151473877157
  0
LWPOLYLINE
  5
79
100
AcDbEntity
  8
ADD your design here
  6
ByLayer
 62
  256
370
    0
100
AcDbPolyline
 90
    2
 70
    0
 43
0
 10
34.55120713111916
 20
72.69151473877157
 10
34.55120713111916
 20
75.69150388732713
  0
LWPOLYLINE
  5
7A
100
AcDbEntity
  8
ADD your design here
  6
ByLayer
 62
  256
370
    0
100
AcDbPolyline
 90
    2
 70
    0
 43
0
 10
34.55120713111916
 20
75.69150388732713
 10
19.55091687879288
 20
75.69150388732713
  0
LWPOLYLINE
  5
7B
100
AcDbEntity
  8
ADD your design here
  6
ByLayer
 62
  256
370
    0
100
AcDbPolyline
 90
    2
 70
    0
 43
0
 10
19.55091687879288
 20
75.69150388732713
 10
19.55091687879288
 20
72.69151473877157
  0
LWPOLYLINE
  5
7C
100
AcDbEntity
  8
ADD your design here
  6
ByLayer
 62
  256
370
    0
100
AcDbPolyline
 90
    2
 70
    0
 43
0
 10
19.55091687879288
 20
72.69151473877157
 10
9.551182723306667
 20
72.69151473877157
  0
LWPOLYLINE
  5
7D
100
AcDbEntity
  8
ADD your design here
  6
ByLayer
 62
  256
370
    0
100
AcDbPolyline
 90
    2
 70
    0
 43
0
 10
9.551182723306667
 20
72.69151473877157
 10
9.551182723306667
 20
82.69193791335479
  0
LWPOLYLINE
  5
7E
100
AcDbEntity
  8
ADD your design here
  6
ByLayer
 62
  256
370
    0
100
AcDbPolyline
 90
    2
 70
    0
 43
0
 10
9.551182723306667
 20
82.69193791335479
 10
12.55117187186227
 20
82.69193791335479
  0
LWPOLYLINE
  5
7F
100
AcDbEntity
  8
ADD your design here
  6
ByLayer
 62
  256
370
    0
100
AcDbPolyline
 90
    2
 70
    0
 43
0
 10
12.55117187186227
 20
82.69193791335479
 10
12.55117187186227
 20
97.69171140135833
  0
LWPOLYLINE
  5
80
100
AcDbEntity
  8
ADD your design here
  6
ByLayer
 62
  256
370
    0
100
AcDbPolyline
 90
    2
 70
    0
 43
0
 10
12.55117187186227
 20
97.69171140135833
 10
9.551182723306667
 20
97.69171140135833
  0
LWPOLYLINE
  5
81
100
AcDbEntity
  8
ADD your design here
  6
ByLayer
 62
  256
370
    0
100
AcDbPolyline
 90
    2
 70
    0
 43
0
 10
9.551182723306667
 20
107.691790066393
 10
12.55117187186227
 20
107.691790066393
  0
LWPOLYLINE
  5
82
100
AcDbEntity
  8
ADD your design here
  6
ByLayer
 62
  256
370
    0
100
AcDbPolyline
 90
    2
 70
    0
 43
0
 10
12.55117187186227
 20
107.691790066393
 10
12.55117187186227
 20
122.6917358091708
  0
LWPOLYLINE
  5
83
100
AcDbEntity
  8
ADD your design here
  6
ByLayer
 62
  256
370
    0
100
AcDbPolyline
 90
    2
 70
    0
 43
0
 10
9.551182723306667
 20
97.69171140135833
 10
9.551182723306667
 20
107.691790066393
  0
LWPOLYLINE
  5
84
100
AcDbEntity
  8
ADD your design here
  6
ByLayer
 62
  256
370
    0
100
AcDbPolyline
 90
    2
 70
    0
 43
0
 10
34.55086262157063
 20
179.6917018865007
 10
34.55086262157063
 20
182.6916910350563
  0
LWPOLYLINE
  5
85
100
AcDbEntity
  8
ADD your design here
  6
ByLayer
 62
  256
370
    0
100
AcDbPolyline
 90
    2
 70
    0
 43
0
 10
44.55128579615386
 20
182.6916910350563
 10
44.55128579615386
 20
179.6917018865007
  0
LWPOLYLINE
  5
86
100
AcDbEntity
  8
ADD your design here
  6
ByLayer
 62
  256
370
    0
100
AcDbPolyline
 90
    2
 70
    0
 43
0
 10
44.55128579615386
 20
179.6917018865007
 10
59.55105928415739
 20
179.6917018865007
  0
LWPOLYLINE
  5
87
100
AcDbEntity
  8
ADD your design here
  6
ByLayer
 62
  256
370
    0
100
AcDbPolyline
 90
    2
 70
    0
 43
0
 10
59.55105928415739
 20
179.6917018865007
 10
59.55105928415739
 20
182.6916910350563
  0
LWPOLYLINE
  5
88
100
AcDbEntity
  8
ADD your design here
  6
ByLayer
 62
  256
370
    0
100
AcDbPolyline
 90
    2
 70
    0
 43
0
 10
69.55113794919208
 20
182.6916910350563
 10
69.55113794919208
 20
179.6917018865007
  0
LWPOLYLINE
  5
89
100
AcDbEntity
  8
ADD your design here
  6
ByLayer
 62
  256
370
    0
100
AcDbPolyline
 90
    2
 70
    0
 43
0
 10
69.55113794919208
 20
179.6917018865007
 10
84.55091143719562
 20
179.6917018865007
  0
LWPOLYLINE
  5
8A
100
AcDbEntity
  8
ADD your design here
  6
ByLayer
 62
  256
370
    0
100
AcDbPolyline
 90
    2
 70
    0
 43
0
 10
84.55091143719562
 20
179.6917018865007
 10
84.55091143719562
 20
182.6916910350563
  0
LWPOLYLINE
  5
8B
100
AcDbEntity
  8
ADD your design here
  6
ByLayer
 62
  256
370
    0
100
AcDbPolyline
 90
    2
 70
    0
 43
0
 10
34.55086262157063
 20
182.6916910350563
 10
44.55128579615386
 20
182.6916910350563
  0
LWPOLYLINE
  5
8C
100
AcDbEntity
  8
ADD your design here
  6
ByLayer
 62
  256
370
    0
100
AcDbPolyline
 90
    2
 70
    0
 43
0
 10
59.55105928415739
 20
182.6916910350563
 10
69.55113794919208
 20
182.6916910350563
  0
LWPOLYLINE
  5
8D
100
AcDbEntity
  8
ADD your design here
  6
ByLayer
 62
  256
370
    0
100
AcDbPolyline
 90
    2
 70
    0
 43
0
 10
84.55091143719562
 20
182.6916910350563
 10
94.55099010223033
 20
182.6916910350563
  0
LWPOLYLINE
  5
8E
100
AcDbEntity
  8
ADD your design here
  6
ByLayer
 62
  256
370
    0
100
AcDbPolyline
 90
    2
 70
    0
 43
0
 10
94.55099010223033
 20
182.6916910350563
 10
94.55099010223033
 20
179.6917018865007
  0
LWPOLYLINE
  5
8F
100
AcDbEntity
  8
ADD your design here
  6
ByLayer
 62
  256
370
    0
100
AcDbPolyline
 90
    2
 70
    0
 43
0
 10
94.55099010223033
 20
179.6917018865007
 10
109.5512803545566
 20
179.6917018865007
  0
LWPOLYLINE
  5
90
100
AcDbEntity
  8
ADD your design here
  6
ByLayer
 62
  256
370
    0
100
AcDbPolyline
 90
    2
 70
    0
 43
0
 10
109.5512803545566
 20
179.6917018865007
 10
109.5512803545566
 20
182.6916910350563
  0
LWPOLYLINE
  5
91
100
AcDbEntity
  8
ADD your design here
  6
ByLayer
 62
  256
370
    0
100
AcDbPolyline
 90
    2
 70
    0
 43
0
 10
109.5512803545566
 20
182.6916910350563
 10
119.5510145100428
 20
182.6916910350563
  0
LWPOLYLINE
  5
92
100
AcDbEntity
  8
ADD your design here
  6
ByLayer
 62
  256
370
    0
100
AcDbPolyline
 90
    2
 70
    0
 43
0
 10
119.5511867648171
 20
182.6916910350563
 10
119.5511867648171
 20
172.6916123700215
  0
LWPOLYLINE
  5
93
100
AcDbEntity
  8
ADD your design here
  6
ByLayer
 62
  256
370
    0
100
AcDbPolyline
 90
    2
 70
    0
 43
0
 10
119.5511867648171
 20
172.6916123700215
 10
116.5511976162615
 20
172.6916123700215
  0
LWPOLYLINE
  5
94
100
AcDbEntity
  8
ADD your design here
  6
ByLayer
 62
  256
370
    0
100
AcDbPolyline
 90
    2
 70
    0
 43
0
 10
116.5511976162615
 20
172.6916123700215
 10
116.5511976162615
 20
157.6916666272438
  0
LWPOLYLINE
  5
95
100
AcDbEntity
  8
ADD your design here
  6
ByLayer
 62
  256
370
    0
100
AcDbPolyline
 90
    2
 70
    0
 43
0
 10
116.5511976162615
 20
157.6916666272438
 10
119.5511867648171
 20
157.6916666272438
  0
LWPOLYLINE
  5
96
100
AcDbEntity
  8
ADD your design here
  6
ByLayer
 62
  256
370
    0
100
AcDbPolyline
 90
    2
 70
    0
 43
0
 10
119.5511867648171
 20
147.691587962209
 10
116.5511976162615
 20
147.691587962209
  0
LWPOLYLINE
  5
97
100
AcDbEntity
  8
ADD your design here
  6
ByLayer
 62
  256
370
    0
100
AcDbPolyline
 90
    2
 70
    0
 43
0
 10
116.5511976162615
 20
147.691587962209
 10
116.5511976162615
 20
132.6916422194313
  0
LWPOLYLINE
  5
98
100
AcDbEntity
  8
ADD your design here
  6
ByLayer
 62
  256
370
    0
100
AcDbPolyline
 90
    2
 70
    0
 43
0
 10
116.5511976162615
 20
132.6916422194313
 10
119.5511867648171
 20
132.6916422194313
  0
LWPOLYLINE
  5
99
100
AcDbEntity
  8
ADD your design here
  6
ByLayer
 62
  256
370
    0
100
AcDbPolyline
 90
    2
 70
    0
 43
0
 10
119.5511867648171
 20
122.6915635543966
 10
116.5511976162615
 20
122.6915635543966
  0
LWPOLYLINE
  5
9A
100
AcDbEntity
  8
ADD your design here
  6
ByLayer
 62
  256
370
    0
100
AcDbPolyline
 90
    2
 70
    0
 43
0
 10
116.5511976162615
 20
122.6915635543966
 10
116.5511976162615
 20
107.691790066393
  0
LWPOLYLINE
  5
9B
100
AcDbEntity
  8
ADD your design here
  6
ByLayer
 62
  256
370
    0
100
AcDbPolyline
 90
    2
 70
    0
 43
0
 10
116.5511976162615
 20
107.691790066393
 10
119.5511867648171
 20
107.691790066393
  0
LWPOLYLINE
  5
9C
100
AcDbEntity
  8
ADD your design here
  6
ByLayer
 62
  256
370
    0
100
AcDbPolyline
 90
    2
 70
    0
 43
0
 10
119.5511867648171
 20
157.6916666272438
 10
119.5511867648171
 20
147.691587962209
  0
LWPOLYLINE
  5
9D
100
AcDbEntity
  8
ADD your design here
  6
ByLayer
 62
  256
370
    0
100
AcDbPolyline
 90
    2
 70
    0
 43
0
 10
119.5511867648171
 20
132.6916422194313
 10
119.5511867648171
 20
122.6915635543966
  0
LWPOLYLINE
  5
9E
100
AcDbEntity
  8
ADD your design here
  6
ByLayer
 62
  256
370
    0
100
AcDbPolyline
 90
    2
 70
    0
 43
0
 10
119.5511867648171
 20
107.691790066393
 10
119.5511867648171
 20
97.69171140135833
  0
LWPOLYLINE
  5
9F
100
AcDbEntity
  8
ADD your design here
  6
ByLayer
 62
  256
370
    0
100
AcDbPolyline
 90
    2
 70
    0
 43
0
 10
119.5511867648171
 20
97.69171140135833
 10
116.5511976162615
 20
97.69171140135833
  0
LWPOLYLINE
  5
A0
100
AcDbEntity
  8
ADD your design here
  6
ByLayer
 62
  256
370
    0
100
AcDbPolyline
 90
    2
 70
    0
 43
0
 10
116.5511976162615
 20
97.69171140135833
 10
116.5511976162615
 20
82.69124889425775
  0
LWPOLYLINE
  5
A1
100
AcDbEntity
  8
ADD your design here
  6
ByLayer
 62
  256
370
    0
100
AcDbPolyline
 90
    2
 70
    0
 43
0
 10
116.5511976162615
 20
82.69124889425775
 10
119.5511867648171
 20
82.69124889425775
  0
LWPOLYLINE
  5
A2
100
AcDbEntity
  8
ADD your design here
  6
ByLayer
 62
  256
370
    0
100
AcDbPolyline
 90
    2
 70
    0
 43
0
 10
119.5511867648171
 20
82.69124889425775
 10
119.5511867648171
 20
72.69151473877157
  0
LINE
  5
A3
100
AcDbEntity
  8
ADD your design here
  6
ByLayer
 62
  256
370
   -1
100
AcDbLine
 10
34.55086262157062
 20
179.6917018865007
 11
34.55086262157062
 21
122.6917358091708
  0
LINE
  5
A4
100
AcDbEntity
  8
ADD your design here
  6
ByLayer
 62
  256
370
   -1
100
AcDbLine
 10
12.55117187186227
 20
122.6917358091708
 11
34.55086262157062
 21
122.6917358091708
  0
LWPOLYLINE
  5
A5
100
AcDbEntity
  8
ADD your design here
  6
ByLayer
 62
  256
370
    0
100
AcDbPolyline
 90
    2
 70
    0
 43
0
 10
151.1763020455393
 20
157.6914943724695
 10
151.1763020455393
 20
97.69153914658403
  0
LWPOLYLINE
  5
A6
100
AcDbEntity
  8
ADD your design here
  6
ByLayer
 62
  256
370
    0
100
AcDbPolyline
 90
    2
 70
    0
 43
0
 10
151.1763020455393
 20
97.69153914658403
 10
150.1761908261712
 20
97.69153914658403
  0
LWPOLYLINE
  5
A7
100
AcDbEntity
  8
ADD your design here
  6
ByLayer
 62
  256
370
    0
100
AcDbPolyline
 90
    2
 70
    0
 43
0
 10
150.1761908261712
 20
97.69153914658403
 10
150.1761908261712
 20
157.6914943724695
  0
LWPOLYLINE
  5
A8
100
AcDbEntity
  8
ADD your design here
  6
ByLayer
 62
  256
370
    0
100
AcDbPolyline
 90
    2
 70
    0
 43
0
 10
150.1761908261712
 20
157.6914943724695
 10
151.1763020455393
 20
157.6914943724695
  0
LWPOLYLINE
  5
A9
100
AcDbEntity
  8
ADD your design here
  6
ByLayer
 62
  256
370
    0
100
AcDbPolyline
 90
    2
 70
    0
 43
0
 10
139.1766899608655
 20
157.6916666272438
 10
139.1766899608655
 20
97.6917114013583
  0
LWPOLYLINE
  5
AA
100
AcDbEntity
  8
ADD your design here
  6
ByLayer
 62
  256
370
    0
100
AcDbPolyline
 90
    2
 70
    0
 43
0
 10
139.1766899608655
 20
97.6917114013583
 10
138.1765787414975
 20
97.6917114013583
  0
LWPOLYLINE
  5
AB
100
AcDbEntity
  8
ADD your design here
  6
ByLayer
 62
  256
370
    0
100
AcDbPolyline
 90
    2
 70
    0
 43
0
 10
138.1765787414975
 20
97.6917114013583
 10
138.1765787414975
 20
157.6916666272438
  0
LWPOLYLINE
  5
AC
100
AcDbEntity
  8
ADD your design here
  6
ByLayer
 62
  256
370
    0
100
AcDbPolyline
 90
    2
 70
    0
 43
0
 10
138.1765787414975
 20
157.6916666272438
 10
139.1766899608655
 20
157.6916666272438
  0
LWPOLYLINE
  5
AD
100
AcDbEntity
  8
ADD your design here
  6
ByLayer
 62
  256
370
    0
100
AcDbPolyline
 90
    2
 70
    0
 43
0
 10
144.1765570386086
 20
172.6916123700215
 10
145.1766682579767
 20
172.6916123700215
  0
LWPOLYLINE
  5
AE
100
AcDbEntity
  8
ADD your design here
  6
ByLayer
 62
  256
370
    0
100
AcDbPolyline
 90
    2
 70
    0
 43
0
 10
145.1766682579767
 20
172.6916123700215
 10
145.1766682579767
 20
82.69159340380627
  0
LWPOLYLINE
  5
AF
100
AcDbEntity
  8
ADD your design here
  6
ByLayer
 62
  256
370
    0
100
AcDbPolyline
 90
    2
 70
    0
 43
0
 10
145.1766682579767
 20
82.69159340380627
 10
144.1765570386086
 20
82.69159340380627
  0
LWPOLYLINE
  5
B0
100
AcDbEntity
  8
ADD your design here
  6
ByLayer
 62
  256
370
    0
100
AcDbPolyline
 90
    2
 70
    0
 43
0
 10
144.1765570386086
 20
172.6916123700215
 10
144.1765570386086
 20
82.69159340380627
  0
LWPOLYLINE
  5
B1
100
AcDbEntity
  8
ADD your design here
  6
ByLayer
 62
  256
370
    0
100
AcDbPolyline
 90
    2
 70
    0
 43
0
 10
131.1764892250184
 20
82.69124889425775
 10
131.1764892250184
 20
75.6911593777786
  0
LWPOLYLINE
  5
B2
100
AcDbEntity
  8
ADD your design here
  6
ByLayer
 62
  256
370
    0
100
AcDbPolyline
 90
    2
 70
    0
 43
0
 10
131.1764892250184
 20
172.6910956056988
 10
131.1764892250184
 20
179.6910128674037
  0
LINE
  5
B3
100
AcDbEntity
  8
ADD your design here
  6
ByLayer
 62
  256
370
   -1
100
AcDbLine
 10
156.676394234068
 20
78.69184839687563
 11
158.1763915620184
 21
78.69184839687563
  0
ARC
  5
B4
100
AcDbEntity
  8
ADD your design here
  6
ByLayer
 62
  256
370
   -1
100
AcDbCircle
 10
156.6763915620184
 20
77.19184839687563
 40
1.5
100
AcDbArc
 50
90.00010206477715
 51
269.9998979352229
  0
LINE
  5
B5
100
AcDbEntity
  8
ADD your design here
  6
ByLayer
 62
  256
370
   -1
100
AcDbLine
 10
131.1764892250184
 20
179.6910128674037
 11
161.1764892250184
 21
179.6910128674037
  0
LINE
  5
B6
100
AcDbEntity
  8
ADD your design here
  6
ByLayer
 62
  256
370
   -1
100
AcDbLine
 10
161.1764892250184
 20
179.6910128674037
 11
161.1763807105739
 21
107.6914455568445
  0
LWPOLYLINE
  5
B7
100
AcDbEntity
  8
ADD your design here
  6
ByLayer
 62
  256
370
    0
100
AcDbPolyline
 90
    2
 70
    0
 43
0
 10
161.1763807105739
 20
97.7417114013583
 10
158.1763915620184
 20
97.7417114013583
  0
LWPOLYLINE
  5
B8
100
AcDbEntity
  8
ADD your design here
  6
ByLayer
 62
  256
370
    0
100
AcDbPolyline
 90
    2
 70
    0
 43
0
 10
131.1764892250184
 20
172.7410956056988
 10
128.1765000764628
 20
172.7410956056988
  0
LWPOLYLINE
  5
B9
100
AcDbEntity
  8
ADD your design here
  6
ByLayer
 62
  256
370
    0
100
AcDbPolyline
 90
    2
 70
    0
 43
0
 10
131.1764892250184
 20
147.741587962209
 10
128.1765000764628
 20
147.741587962209
  0
LWPOLYLINE
  5
BA
100
AcDbEntity
  8
ADD your design here
  6
ByLayer
 62
  256
370
    0
100
AcDbPolyline
 90
    2
 70
    0
 43
0
 10
131.1764892250184
 20
122.7413912996223
 10
128.1765000764628
 20
122.7413912996223
  0
LWPOLYLINE
  5
BB
100
AcDbEntity
  8
ADD your design here
  6
ByLayer
 62
  256
370
    0
100
AcDbPolyline
 90
    2
 70
    0
 43
0
 10
131.1764892250184
 20
97.74153914658406
 10
128.1765000764628
 20
97.74153914658406
  0
LWPOLYLINE
  5
BC
100
AcDbEntity
  8
ADD your design here
  6
ByLayer
 62
  256
370
    0
100
AcDbPolyline
 90
    2
 70
    0
 43
0
 10
158.1763915620184
 20
82.64193791335478
 10
161.1763807105739
 20
82.64193791335478
  0
LWPOLYLINE
  5
BD
100
AcDbEntity
  8
ADD your design here
  6
ByLayer
 62
  256
370
    0
100
AcDbPolyline
 90
    2
 70
    0
 43
0
 10
158.1763915620184
 20
107.6414455568445
 10
161.1763807105739
 20
107.6414455568445
  0
LWPOLYLINE
  5
BE
100
AcDbEntity
  8
ADD your design here
  6
ByLayer
 62
  256
370
    0
100
AcDbPolyline
 90
    2
 70
    0
 43
0
 10
128.1765000764628
 20
157.641149862921
 10
131.1764892250184
 20
157.641149862921
  0
LWPOLYLINE
  5
BF
100
AcDbEntity
  8
ADD your design here
  6
ByLayer
 62
  256
370
    0
100
AcDbPolyline
 90
    2
 70
    0
 43
0
 10
128.1765000764628
 20
132.6416422194313
 10
131.1764892250184
 20
132.6416422194313
  0
LWPOLYLINE
  5
C0
100
AcDbEntity
  8
ADD your design here
  6
ByLayer
 62
  256
370
    0
100
AcDbPolyline
 90
    2
 70
    0
 43
0
 10
128.1765000764628
 20
107.6416178116188
 10
131.1764892250184
 20
107.6416178116188
  0
LWPOLYLINE
  5
C1
100
AcDbEntity
  8
ADD your design here
  6
ByLayer
 62
  256
370
    0
100
AcDbPolyline
 90
    2
 70
    0
 43
0
 10
128.1765000764628
 20
82.64124889425771
 10
131.1764892250184
 20
82.64124889425771
  0
LINE
  5
C2
100
AcDbEntity
  8
ADD your design here
  6
ByLayer
 62
  256
370
   -1
100
AcDbLine
 10
161.1763807105739
 20
82.64193791335478
 11
161.1763807105739
 21
97.7417114013583
  0
LINE
  5
C3
100
AcDbEntity
  8
ADD your design here
  6
ByLayer
 62
  256
370
   -1
100
AcDbLine
 10
128.1765000764628
 20
82.64124889425771
 11
128.1765000764628
 21
97.74153914658406
  0
LINE
  5
C4
100
AcDbEntity
  8
ADD your design here
  6
ByLayer
 62
  256
370
   -1
100
AcDbLine
 10
131.1764892250184
 20
97.74153914658406
 11
131.1764892250184
 21
107.6416178116188
  0
LINE
  5
C5
100
AcDbEntity
  8
ADD your design here
  6
ByLayer
 62
  256
370
   -1
100
AcDbLine
 10
128.1765000764628
 20
107.6416178116188
 11
128.1765000764628
 21
122.7413912996223
  0
LINE
  5
C6
100
AcDbEntity
  8
ADD your design here
  6
ByLayer
 62
  256
370
   -1
100
AcDbLine
 10
131.1764892250184
 20
122.7413912996223
 11
131.1764892250184
 21
132.6416422194313
  0
LINE
  5
C7
100
AcDbEntity
  8
ADD your design here
  6
ByLayer
 62
  256
370
   -1
100
AcDbLine
 10
128.1765000764628
 20
132.6416422194313
 11
128.1765000764628
 21
147.741587962209
  0
LINE
  5
C8
100
AcDbEntity
  8
ADD your design here
  6
ByLayer
 62
  256
370
   -1
100
AcDbLine
 10
131.1764892250184
 20
147.741587962209
 11
131.1764892250184
 21
157.641149862921
  0
LINE
  5
C9
100
AcDbEntity
  8
ADD your design here
  6
ByLayer
 62
  256
370
   -1
100
AcDbLine
 10
128.1765000764628
 20
157.641149862921
 11
128.1765000764628
 21
172.7410956056988
  0
LINE
  5
CA
100
AcDbEntity
  8
ADD your design here
  6
ByLayer
 62
  256
370
   -1
100
AcDbLine
 10
158.1763915620184
 20
78.69184839687563
 11
158.1763915620184
 21
82.64193791335478
  0
LINE
  5
CB
100
AcDbEntity
  8
ADD your design here
  6
ByLayer
 62
  256
370
   -1
100
AcDbLine
 10
156.6763888899687
 20
75.69184839687803
 11
131.1764892250184
 21
75.6911593777786
  0
LINE
  5
CC
100
AcDbEntity
  8
ADD your design here
  6
ByLayer
 62
  256
370
   -1
100
AcDbLine
 10
156.6763915620184
 20
104.6915784791014
 11
156.6763915620184
 21
100.6915784791014
  0
LINE
  5
CD
100
AcDbEntity
  8
ADD your design here
  6
ByLayer
 62
  256
370
   -1
100
AcDbLine
 10
156.6763915620184
 20
104.6915784791014
 11
158.1763915620184
 21
104.6915784791014
  0
LINE
  5
CE
100
AcDbEntity
  8
ADD your design here
  6
ByLayer
 62
  256
370
   -1
100
AcDbLine
 10
156.6763915620184
 20
100.6915784791014
 11
158.1763915620184
 21
100.6915784791014
  0
LINE
  5
CF
100
AcDbEntity
  8
ADD your design here
  6
ByLayer
 62
  256
370
   -1
100
AcDbLine
 10
158.1763915620184
 20
104.6915784791014
 11
158.1763915620184
 21
107.6414455568445
  0
LINE
  5
D0
100
AcDbEntity
  8
ADD your design here
  6
ByLayer
 62
  256
370
   -1
100
AcDbLine
 10
158.1763915620184
 20
100.6915784791014
 11
158.1763915620184
 21
97.7417114013583
  0
LINE
  5
D1
100
AcDbEntity
  8
ADD your design here
  6
ByLayer
 62
  256
370
   -1
100
AcDbLine
 10
46.48177020842695
 20
66.36145513697993
 11
43.48177020842695
 21
66.36145513697993
  0
LINE
  5
D2
100
AcDbEntity
  8
ADD your design here
  6
ByLayer
 62
  256
370
   -1
100
AcDbLine
 10
46.48177020842695
 20
6.361327656320213
 11
43.48177020842695
 21
6.361327656320213
  0
LINE
  5
D3
100
AcDbEntity
  8
ADD your design here
  6
ByLayer
 62
  256
370
   -1
100
AcDbLine
 10
43.48177020842695
 20
6.361327656320213
 11
43.48177020842695
 21
66.36145513697993
  0
LINE
  5
D4
100
AcDbEntity
  8
ADD your design here
  6
ByLayer
 62
  256
370
   -1
100
AcDbLine
 10
51.48177020842695
 20
66.36145513697993
 11
57.48177020842695
 21
66.36145513697993
  0
LINE
  5
D5
100
AcDbEntity
  8
ADD your design here
  6
ByLayer
 62
  256
370
   -1
100
AcDbLine
 10
51.48177020842696
 20
6.361499911094498
 11
57.48177020842696
 21
6.361499911094498
  0
LINE
  5
D6
100
AcDbEntity
  8
ADD your design here
  6
ByLayer
 62
  256
370
   -1
100
AcDbLine
 10
57.48177020842696
 20
6.361499911094498
 11
57.48177020842695
 21
66.36145513697993
  0
LINE
  5
D7
100
AcDbEntity
  8
ADD your design here
  6
ByLayer
 62
  256
370
   -1
100
AcDbLine
 10
62.48177020842695
 20
66.36145513697993
 11
59.48177020842695
 21
66.36145513697993
  0
LINE
  5
D8
100
AcDbEntity
  8
ADD your design here
  6
ByLayer
 62
  256
370
   -1
100
AcDbLine
 10
62.48177020842695
 20
6.361327656320213
 11
59.48177020842695
 21
6.361327656320213
  0
LINE
  5
D9
100
AcDbEntity
  8
ADD your design here
  6
ByLayer
 62
  256
370
   -1
100
AcDbLine
 10
59.48177020842695
 20
6.361327656320213
 11
59.48177020842695
 21
66.36145513697993
  0
LINE
  5
DA
100
AcDbEntity
  8
ADD your design here
  6
ByLayer
 62
  256
370
   -1
100
AcDbLine
 10
67.48177020842695
 20
66.36145513697993
 11
73.48177020842695
 21
66.36145513697993
  0
LINE
  5
DB
100
AcDbEntity
  8
ADD your design here
  6
ByLayer
 62
  256
370
   -1
100
AcDbLine
 10
67.48177020842695
 20
6.361499911094498
 11
73.48177020842695
 21
6.361499911094498
  0
LINE
  5
DC
100
AcDbEntity
  8
ADD your design here
  6
ByLayer
 62
  256
370
   -1
100
AcDbLine
 10
73.48177020842695
 20
6.361499911094498
 11
73.48177020842695
 21
66.36145513697993
  0
LINE
  5
DD
100
AcDbEntity
  8
ADD your design here
  6
ByLayer
 62
  256
370
   -1
100
AcDbLine
 10
78.48177020842695
 20
66.36145513697993
 11
75.48177020842695
 21
66.36145513697993
  0
LINE
  5
DE
100
AcDbEntity
  8
ADD your design here
  6
ByLayer
 62
  256
370
   -1
100
AcDbLine
 10
78.48177020842695
 20
6.361327656320213
 11
75.48177020842695
 21
6.361327656320213
  0
LINE
  5
DF
100
AcDbEntity
  8
ADD your design here
  6
ByLayer
 62
  256
370
   -1
100
AcDbLine
 10
75.48177020842695
 20
6.361327656320213
 11
75.48177020842695
 21
66.36145513697993
  0
LINE
  5
E0
100
AcDbEntity
  8
ADD your design here
  6
ByLayer
 62
  256
370
   -1
100
AcDbLine
 10
83.48177020842695
 20
66.36145513697993
 11
89.48177020842695
 21
66.36145513697993
  0
LINE
  5
E1
100
AcDbEntity
  8
ADD your design here
  6
ByLayer
 62
  256
370
   -1
100
AcDbLine
 10
83.48177020842695
 20
6.361499911094498
 11
89.48177020842695
 21
6.361499911094498
  0
LINE
  5
E2
100
AcDbEntity
  8
ADD your design here
  6
ByLayer
 62
  256
370
   -1
100
AcDbLine
 10
89.48177020842695
 20
6.361499911094498
 11
89.48177020842695
 21
66.36145513697993
  0
LWPOLYLINE
  5
E3
100
AcDbEntity
  8
ADD your design here
  6
ByLayer
 62
  256
370
    0
100
AcDbPolyline
 90
    2
 70
    0
 43
0
 10
46.48177020842695
 20
56.41137647194523
 10
49.48175935698251
 20
56.41137647194523
  0
LWPOLYLINE
  5
E4
100
AcDbEntity
  8
ADD your design here
  6
ByLayer
 62
  256
370
    0
100
AcDbPolyline
 90
    2
 70
    0
 43
0
 10
46.48177020842695
 20
31.41152431890697
 10
49.48175935698251
 20
31.41152431890697
  0
LWPOLYLINE
  5
E5
100
AcDbEntity
  8
ADD your design here
  6
ByLayer
 62
  256
370
    0
100
AcDbPolyline
 90
    2
 70
    0
 43
0
 10
51.48177020842695
 20
16.41157857612921
 10
54.48175935698251
 20
16.41157857612921
  0
LWPOLYLINE
  5
E6
100
AcDbEntity
  8
ADD your design here
  6
ByLayer
 62
  256
370
    0
100
AcDbPolyline
 90
    2
 70
    0
 43
0
 10
51.48177020842695
 20
41.41160298394169
 10
54.48175935698251
 20
41.41160298394169
  0
LWPOLYLINE
  5
E7
100
AcDbEntity
  8
ADD your design here
  6
ByLayer
 62
  256
370
    0
100
AcDbPolyline
 90
    2
 70
    0
 43
0
 10
49.48175935698251
 20
41.31160298394164
 10
46.48177020842695
 20
41.31160298394164
  0
LWPOLYLINE
  5
E8
100
AcDbEntity
  8
ADD your design here
  6
ByLayer
 62
  256
370
    0
100
AcDbPolyline
 90
    2
 70
    0
 43
0
 10
49.48175935698251
 20
16.31106181180639
 10
46.48177020842695
 20
16.31106181180639
  0
LWPOLYLINE
  5
E9
100
AcDbEntity
  8
ADD your design here
  6
ByLayer
 62
  256
370
    0
100
AcDbPolyline
 90
    2
 70
    0
 43
0
 10
54.48175935698251
 20
31.311524318907
 10
51.48177020842695
 20
31.311524318907
  0
LWPOLYLINE
  5
EA
100
AcDbEntity
  8
ADD your design here
  6
ByLayer
 62
  256
370
    0
100
AcDbPolyline
 90
    2
 70
    0
 43
0
 10
54.48175935698251
 20
56.31154872671948
 10
51.48177020842695
 20
56.31154872671948
  0
LINE
  5
EB
100
AcDbEntity
  8
ADD your design here
  6
ByLayer
 62
  256
370
   -1
100
AcDbLine
 10
46.48177020842695
 20
66.36145513697993
 11
46.48177020842695
 21
56.41137647194523
  0
LINE
  5
EC
100
AcDbEntity
  8
ADD your design here
  6
ByLayer
 62
  256
370
   -1
100
AcDbLine
 10
51.48177020842695
 20
66.36145513697993
 11
51.48177020842695
 21
56.31154872671948
  0
LINE
  5
ED
100
AcDbEntity
  8
ADD your design here
  6
ByLayer
 62
  256
370
   -1
100
AcDbLine
 10
49.48175935698251
 20
56.41137647194523
 11
49.48175935698251
 21
41.31160298394164
  0
LINE
  5
EE
100
AcDbEntity
  8
ADD your design here
  6
ByLayer
 62
  256
370
   -1
100
AcDbLine
 10
46.48177020842695
 20
41.31160298394164
 11
46.48177020842695
 21
31.41152431890697
  0
LINE
  5
EF
100
AcDbEntity
  8
ADD your design here
  6
ByLayer
 62
  256
370
   -1
100
AcDbLine
 10
49.48175935698251
 20
31.41152431890697
 11
49.48175935698251
 21
16.31106181180639
  0
LINE
  5
F0
100
AcDbEntity
  8
ADD your design here
  6
ByLayer
 62
  256
370
   -1
100
AcDbLine
 10
46.48177020842695
 20
16.31106181180639
 11
46.48177020842695
 21
6.361327656320213
  0
LINE
  5
F1
100
AcDbEntity
  8
ADD your design here
  6
ByLayer
 62
  256
370
   -1
100
AcDbLine
 10
51.48177020842695
 20
16.41157857612921
 11
51.48177020842696
 21
6.361499911094498
  0
LINE
  5
F2
100
AcDbEntity
  8
ADD your design here
  6
ByLayer
 62
  256
370
   -1
100
AcDbLine
 10
54.48175935698251
 20
16.41157857612921
 11
54.48175935698251
 21
31.311524318907
  0
LINE
  5
F3
100
AcDbEntity
  8
ADD your design here
  6
ByLayer
 62
  256
370
   -1
100
AcDbLine
 10
51.48177020842695
 20
31.311524318907
 11
51.48177020842695
 21
41.41160298394169
  0
LINE
  5
F4
100
AcDbEntity
  8
ADD your design here
  6
ByLayer
 62
  256
370
   -1
100
AcDbLine
 10
54.48175935698251
 20
56.31154872671948
 11
54.48175935698251
 21
41.41160298394169
  0
LWPOLYLINE
  5
F5
100
AcDbEntity
  8
ADD your design here
  6
ByLayer
 62
  256
370
    0
100
AcDbPolyline
 90
    2
 70
    0
 43
0
 10
62.48177020842695
 20
56.42137647194524
 10
65.48175935698251
 20
56.42137647194524
  0
LWPOLYLINE
  5
F6
100
AcDbEntity
  8
ADD your design here
  6
ByLayer
 62
  256
370
    0
100
AcDbPolyline
 90
    2
 70
    0
 43
0
 10
62.48177020842695
 20
31.42152431890697
 10
65.48175935698251
 20
31.42152431890697
  0
LWPOLYLINE
  5
F7
100
AcDbEntity
  8
ADD your design here
  6
ByLayer
 62
  256
370
    0
100
AcDbPolyline
 90
    2
 70
    0
 43
0
 10
67.48177020842695
 20
16.4215785761292
 10
70.48175935698251
 20
16.4215785761292
  0
LWPOLYLINE
  5
F8
100
AcDbEntity
  8
ADD your design here
  6
ByLayer
 62
  256
370
    0
100
AcDbPolyline
 90
    2
 70
    0
 43
0
 10
67.48177020842695
 20
41.4216029839417
 10
70.48175935698251
 20
41.4216029839417
  0
LWPOLYLINE
  5
F9
100
AcDbEntity
  8
ADD your design here
  6
ByLayer
 62
  256
370
    0
100
AcDbPolyline
 90
    2
 70
    0
 43
0
 10
65.48175935698251
 20
41.30160298394163
 10
62.48177020842695
 20
41.30160298394163
  0
LWPOLYLINE
  5
FA
100
AcDbEntity
  8
ADD your design here
  6
ByLayer
 62
  256
370
    0
100
AcDbPolyline
 90
    2
 70
    0
 43
0
 10
65.48175935698251
 20
16.30106181180639
 10
62.48177020842695
 20
16.30106181180639
  0
LWPOLYLINE
  5
FB
100
AcDbEntity
  8
ADD your design here
  6
ByLayer
 62
  256
370
    0
100
AcDbPolyline
 90
    2
 70
    0
 43
0
 10
70.48175935698251
 20
31.301524318907
 10
67.48177020842695
 20
31.301524318907
  0
LWPOLYLINE
  5
FC
100
AcDbEntity
  8
ADD your design here
  6
ByLayer
 62
  256
370
    0
100
AcDbPolyline
 90
    2
 70
    0
 43
0
 10
70.48175935698251
 20
56.30154872671947
 10
67.48177020842695
 20
56.30154872671947
  0
LINE
  5
FD
100
AcDbEntity
  8
ADD your design here
  6
ByLayer
 62
  256
370
   -1
100
AcDbLine
 10
62.48177020842695
 20
66.36145513697993
 11
62.48177020842695
 21
56.42137647194524
  0
LINE
  5
FE
100
AcDbEntity
  8
ADD your design here
  6
ByLayer
 62
  256
370
   -1
100
AcDbLine
 10
67.48177020842695
 20
66.36145513697993
 11
67.48177020842695
 21
56.30154872671947
  0
LINE
  5
FF
100
AcDbEntity
  8
ADD your design here
  6
ByLayer
 62
  256
370
   -1
100
AcDbLine
 10
70.48175935698251
 20
56.30154872671947
 11
70.48175935698251
 21
41.4216029839417
  0
LINE
  5
100
100
AcDbEntity
  8
ADD your design here
  6
ByLayer
 62
  256
370
   -1
100
AcDbLine
 10
65.48175935698251
 20
56.42137647194524
 11
65.48175935698251
 21
41.30160298394163
  0
LINE
  5
101
100
AcDbEntity
  8
ADD your design here
  6
ByLayer
 62
  256
370
   -1
100
AcDbLine
 10
62.48177020842695
 20
41.30160298394163
 11
62.48177020842695
 21
31.42152431890697
  0
LINE
  5
102
100
AcDbEntity
  8
ADD your design here
  6
ByLayer
 62
  256
370
   -1
100
AcDbLine
 10
67.48177020842695
 20
41.4216029839417
 11
67.48177020842695
 21
31.301524318907
  0
LINE
  5
103
100
AcDbEntity
  8
ADD your design here
  6
ByLayer
 62
  256
370
   -1
100
AcDbLine
 10
70.48175935698251
 20
31.301524318907
 11
70.48175935698251
 21
16.4215785761292
  0
LINE
  5
104
100
AcDbEntity
  8
ADD your design here
  6
ByLayer
 62
  256
370
   -1
100
AcDbLine
 10
65.48175935698251
 20
16.30106181180639
 11
65.48175935698251
 21
31.42152431890697
  0
LINE
  5
105
100
AcDbEntity
  8
ADD your design here
  6
ByLayer
 62
  256
370
   -1
100
AcDbLine
 10
67.48177020842695
 20
16.4215785761292
 11
67.48177020842695
 21
6.361499911094498
  0
LINE
  5
106
100
AcDbEntity
  8
ADD your design here
  6
ByLayer
 62
  256
370
   -1
100
AcDbLine
 10
62.48177020842695
 20
16.30106181180639
 11
62.48177020842695
 21
6.361327656320213
  0
LWPOLYLINE
  5
107
100
AcDbEntity
  8
ADD your design here
  6
ByLayer
 62
  256
370
    0
100
AcDbPolyline
 90
    2
 70
    0
 43
0
 10
78.48177020842695
 20
56.43137647194524
 10
81.48175935698251
 20
56.43137647194524
  0
LWPOLYLINE
  5
108
100
AcDbEntity
  8
ADD your design here
  6
ByLayer
 62
  256
370
    0
100
AcDbPolyline
 90
    2
 70
    0
 43
0
 10
78.48177020842695
 20
31.43152431890697
 10
81.48175935698251
 20
31.43152431890697
  0
LWPOLYLINE
  5
109
100
AcDbEntity
  8
ADD your design here
  6
ByLayer
 62
  256
370
    0
100
AcDbPolyline
 90
    2
 70
    0
 43
0
 10
83.48177020842695
 20
16.4315785761292
 10
86.48175935698251
 20
16.4315785761292
  0
LWPOLYLINE
  5
10A
100
AcDbEntity
  8
ADD your design here
  6
ByLayer
 62
  256
370
    0
100
AcDbPolyline
 90
    2
 70
    0
 43
0
 10
83.48177020842695
 20
41.43160298394169
 10
86.48175935698251
 20
41.43160298394169
  0
LWPOLYLINE
  5
10B
100
AcDbEntity
  8
ADD your design here
  6
ByLayer
 62
  256
370
    0
100
AcDbPolyline
 90
    2
 70
    0
 43
0
 10
81.48175935698251
 20
41.29160298394164
 10
78.48177020842695
 20
41.29160298394164
  0
LWPOLYLINE
  5
10C
100
AcDbEntity
  8
ADD your design here
  6
ByLayer
 62
  256
370
    0
100
AcDbPolyline
 90
    2
 70
    0
 43
0
 10
81.48175935698251
 20
16.29106181180639
 10
78.48177020842695
 20
16.29106181180639
  0
LWPOLYLINE
  5
10D
100
AcDbEntity
  8
ADD your design here
  6
ByLayer
 62
  256
370
    0
100
AcDbPolyline
 90
    2
 70
    0
 43
0
 10
86.48175935698251
 20
31.291524318907
 10
83.48177020842695
 20
31.291524318907
  0
LWPOLYLINE
  5
10E
100
AcDbEntity
  8
ADD your design here
  6
ByLayer
 62
  256
370
    0
100
AcDbPolyline
 90
    2
 70
    0
 43
0
 10
86.48175935698251
 20
56.29154872671948
 10
83.48177020842695
 20
56.29154872671948
  0
LINE
  5
10F
100
AcDbEntity
  8
ADD your design here
  6
ByLayer
 62
  256
370
   -1
100
AcDbLine
 10
78.48177020842695
 20
66.36145513697993
 11
78.48177020842695
 21
56.43137647194524
  0
LINE
  5
110
100
AcDbEntity
  8
ADD your design here
  6
ByLayer
 62
  256
370
   -1
100
AcDbLine
 10
83.48177020842695
 20
66.36145513697993
 11
83.48177020842695
 21
56.29154872671948
  0
LINE
  5
111
100
AcDbEntity
  8
ADD your design here
  6
ByLayer
 62
  256
370
   -1
100
AcDbLine
 10
81.48175935698251
 20
56.43137647194524
 11
81.48175935698251
 21
41.29160298394164
  0
LINE
  5
112
100
AcDbEntity
  8
ADD your design here
  6
ByLayer
 62
  256
370
   -1
100
AcDbLine
 10
78.48177020842695
 20
41.29160298394164
 11
78.48177020842695
 21
31.43152431890697
  0
LINE
  5
113
100
AcDbEntity
  8
ADD your design here
  6
ByLayer
 62
  256
370
   -1
100
AcDbLine
 10
81.48175935698251
 20
31.43152431890697
 11
81.48175935698251
 21
16.29106181180639
  0
LINE
  5
114
100
AcDbEntity
  8
ADD your design here
  6
ByLayer
 62
  256
370
   -1
100
AcDbLine
 10
78.48177020842695
 20
16.29106181180639
 11
78.48177020842695
 21
6.361327656320213
  0
LINE
  5
115
100
AcDbEntity
  8
ADD your design here
  6
ByLayer
 62
  256
370
   -1
100
AcDbLine
 10
83.48177020842695
 20
6.361499911094498
 11
83.48177020842695
 21
16.4315785761292
  0
LINE
  5
116
100
AcDbEntity
  8
ADD your design here
  6
ByLayer
 62
  256
370
   -1
100
AcDbLine
 10
86.48175935698251
 20
16.4315785761292
 11
86.48175935698251
 21
31.291524318907
  0
LINE
  5
117
100
AcDbEntity
  8
ADD your design here
  6
ByLayer
 62
  256
370
   -1
100
AcDbLine
 10
83.48177020842695
 20
31.291524318907
 11
83.48177020842695
 21
41.43160298394169
  0
LINE
  5
118
100
AcDbEntity
  8
ADD your design here
  6
ByLayer
 62
  256
370
   -1
100
AcDbLine
 10
86.48175935698251
 20
41.43160298394169
 11
86.48175935698251
 21
56.29154872671948
  0
LINE
  5
119
100
AcDbEntity
  8
ADD your design here
  6
ByLayer
 62
  256
370
   -1
100
AcDbLine
 10
13.67522006400361
 20
66.05903616563474
 11
10.67522006400361
 21
66.05903616563474
  0
LINE
  5
11A
100
AcDbEntity
  8
ADD your design here
  6
ByLayer
 62
  256
370
   -1
100
AcDbLine
 10
13.67522006400361
 20
6.058908684975025
 11
10.67522006400361
 21
6.058908684975025
  0
LINE
  5
11B
100
AcDbEntity
  8
ADD your design here
  6
ByLayer
 62
  256
370
   -1
100
AcDbLine
 10
10.67522006400361
 20
6.058908684975025
 11
10.67522006400361
 21
66.05903616563474
  0
LINE
  5
11C
100
AcDbEntity
  8
ADD your design here
  6
ByLayer
 62
  256
370
   -1
100
AcDbLine
 10
18.67522006400361
 20
66.05903616563474
 11
24.67522006400361
 21
66.05903616563474
  0
LINE
  5
11D
100
AcDbEntity
  8
ADD your design here
  6
ByLayer
 62
  256
370
   -1
100
AcDbLine
 10
18.67522006400361
 20
6.059080939749309
 11
24.67522006400361
 21
6.059080939749309
  0
LINE
  5
11E
100
AcDbEntity
  8
ADD your design here
  6
ByLayer
 62
  256
370
   -1
100
AcDbLine
 10
24.67522006400361
 20
6.059080939749309
 11
24.67522006400361
 21
66.05903616563474
  0
LINE
  5
11F
100
AcDbEntity
  8
ADD your design here
  6
ByLayer
 62
  256
370
   -1
100
AcDbLine
 10
29.67522006400361
 20
66.05903616563474
 11
26.67522006400361
 21
66.05903616563474
  0
LINE
  5
120
100
AcDbEntity
  8
ADD your design here
  6
ByLayer
 62
  256
370
   -1
100
AcDbLine
 10
29.67522006400361
 20
6.058908684975025
 11
26.67522006400361
 21
6.058908684975025
  0
LINE
  5
121
100
AcDbEntity
  8
ADD your design here
  6
ByLayer
 62
  256
370
   -1
100
AcDbLine
 10
26.67522006400361
 20
6.058908684975025
 11
26.67522006400361
 21
66.05903616563474
  0
LINE
  5
122
100
AcDbEntity
  8
ADD your design here
  6
ByLayer
 62
  256
370
   -1
100
AcDbLine
 10
34.67522006400361
 20
66.05903616563474
 11
40.67522006400361
 21
66.05903616563474
  0
LINE
  5
123
100
AcDbEntity
  8
ADD your design here
  6
ByLayer
 62
  256
370
   -1
100
AcDbLine
 10
34.67522006400361
 20
6.059080939749309
 11
40.67522006400361
 21
6.059080939749309
  0
LINE
  5
124
100
AcDbEntity
  8
ADD your design here
  6
ByLayer
 62
  256
370
   -1
100
AcDbLine
 10
40.67522006400361
 20
6.059080939749309
 11
40.67522006400361
 21
66.05903616563474
  0
LWPOLYLINE
  5
125
100
AcDbEntity
  8
ADD your design here
  6
ByLayer
 62
  256
370
    0
100
AcDbPolyline
 90
    2
 70
    0
 43
0
 10
29.67522006400361
 20
56.09895750060004
 10
32.67520921255917
 20
56.09895750060004
  0
LWPOLYLINE
  5
126
100
AcDbEntity
  8
ADD your design here
  6
ByLayer
 62
  256
370
    0
100
AcDbPolyline
 90
    2
 70
    0
 43
0
 10
29.67522006400361
 20
31.09910534756178
 10
32.67520921255917
 20
31.09910534756178
  0
LWPOLYLINE
  5
127
100
AcDbEntity
  8
ADD your design here
  6
ByLayer
 62
  256
370
    0
100
AcDbPolyline
 90
    2
 70
    0
 43
0
 10
34.67522006400361
 20
16.09915960478401
 10
37.67520921255917
 20
16.09915960478401
  0
LWPOLYLINE
  5
128
100
AcDbEntity
  8
ADD your design here
  6
ByLayer
 62
  256
370
    0
100
AcDbPolyline
 90
    2
 70
    0
 43
0
 10
34.67522006400361
 20
41.0991840125965
 10
37.67520921255917
 20
41.0991840125965
  0
LWPOLYLINE
  5
129
100
AcDbEntity
  8
ADD your design here
  6
ByLayer
 62
  256
370
    0
100
AcDbPolyline
 90
    2
 70
    0
 43
0
 10
32.67520921255917
 20
41.01918401259645
 10
29.67522006400361
 20
41.01918401259645
  0
LWPOLYLINE
  5
12A
100
AcDbEntity
  8
ADD your design here
  6
ByLayer
 62
  256
370
    0
100
AcDbPolyline
 90
    2
 70
    0
 43
0
 10
32.67520921255917
 20
16.0186428404612
 10
29.67522006400361
 20
16.0186428404612
  0
LWPOLYLINE
  5
12B
100
AcDbEntity
  8
ADD your design here
  6
ByLayer
 62
  256
370
    0
100
AcDbPolyline
 90
    2
 70
    0
 43
0
 10
37.67520921255917
 20
31.01910534756181
 10
34.67522006400361
 20
31.01910534756181
  0
LWPOLYLINE
  5
12C
100
AcDbEntity
  8
ADD your design here
  6
ByLayer
 62
  256
370
    0
100
AcDbPolyline
 90
    2
 70
    0
 43
0
 10
37.67520921255917
 20
56.01912975537429
 10
34.67522006400361
 20
56.01912975537429
  0
LINE
  5
12D
100
AcDbEntity
  8
ADD your design here
  6
ByLayer
 62
  256
370
   -1
100
AcDbLine
 10
29.67522006400361
 20
66.05903616563474
 11
29.67522006400361
 21
56.09895750060004
  0
LINE
  5
12E
100
AcDbEntity
  8
ADD your design here
  6
ByLayer
 62
  256
370
   -1
100
AcDbLine
 10
34.67522006400361
 20
66.05903616563474
 11
34.67522006400361
 21
56.01912975537429
  0
LINE
  5
12F
100
AcDbEntity
  8
ADD your design here
  6
ByLayer
 62
  256
370
   -1
100
AcDbLine
 10
32.67520921255917
 20
56.09895750060004
 11
32.67520921255917
 21
41.01918401259645
  0
LINE
  5
130
100
AcDbEntity
  8
ADD your design here
  6
ByLayer
 62
  256
370
   -1
100
AcDbLine
 10
37.67520921255917
 20
56.01912975537429
 11
37.67520921255917
 21
41.0991840125965
  0
LINE
  5
131
100
AcDbEntity
  8
ADD your design here
  6
ByLayer
 62
  256
370
   -1
100
AcDbLine
 10
29.67522006400361
 20
41.01918401259645
 11
29.67522006400361
 21
31.09910534756178
  0
LINE
  5
132
100
AcDbEntity
  8
ADD your design here
  6
ByLayer
 62
  256
370
   -1
100
AcDbLine
 10
32.67520921255917
 20
31.09910534756178
 11
32.67520921255917
 21
16.0186428404612
  0
LINE
  5
133
100
AcDbEntity
  8
ADD your design here
  6
ByLayer
 62
  256
370
   -1
100
AcDbLine
 10
29.67522006400361
 20
16.0186428404612
 11
29.67522006400361
 21
6.058908684975025
  0
LINE
  5
134
100
AcDbEntity
  8
ADD your design here
  6
ByLayer
 62
  256
370
   -1
100
AcDbLine
 10
34.67522006400361
 20
6.059080939749309
 11
34.67522006400361
 21
16.09915960478401
  0
LINE
  5
135
100
AcDbEntity
  8
ADD your design here
  6
ByLayer
 62
  256
370
   -1
100
AcDbLine
 10
37.67520921255917
 20
16.09915960478401
 11
37.67520921255917
 21
31.01910534756181
  0
LINE
  5
136
100
AcDbEntity
  8
ADD your design here
  6
ByLayer
 62
  256
370
   -1
100
AcDbLine
 10
34.67522006400361
 20
31.01910534756181
 11
34.67522006400361
 21
41.0991840125965
  0
LWPOLYLINE
  5
137
100
AcDbEntity
  8
ADD your design here
  6
ByLayer
 62
  256
370
    0
100
AcDbPolyline
 90
    2
 70
    0
 43
0
 10
13.67522006400361
 20
56.08895750060005
 10
16.67520921255917
 20
56.08895750060005
  0
LWPOLYLINE
  5
138
100
AcDbEntity
  8
ADD your design here
  6
ByLayer
 62
  256
370
    0
100
AcDbPolyline
 90
    2
 70
    0
 43
0
 10
13.67522006400361
 20
31.08910534756178
 10
16.67520921255917
 20
31.08910534756178
  0
LWPOLYLINE
  5
139
100
AcDbEntity
  8
ADD your design here
  6
ByLayer
 62
  256
370
    0
100
AcDbPolyline
 90
    2
 70
    0
 43
0
 10
18.67522006400361
 20
16.08915960478402
 10
21.67520921255917
 20
16.08915960478402
  0
LWPOLYLINE
  5
13A
100
AcDbEntity
  8
ADD your design here
  6
ByLayer
 62
  256
370
    0
100
AcDbPolyline
 90
    2
 70
    0
 43
0
 10
18.67522006400361
 20
41.0891840125965
 10
21.67520921255917
 20
41.0891840125965
  0
LWPOLYLINE
  5
13B
100
AcDbEntity
  8
ADD your design here
  6
ByLayer
 62
  256
370
    0
100
AcDbPolyline
 90
    2
 70
    0
 43
0
 10
16.67520921255917
 20
41.02918401259645
 10
13.67522006400361
 20
41.02918401259645
  0
LWPOLYLINE
  5
13C
100
AcDbEntity
  8
ADD your design here
  6
ByLayer
 62
  256
370
    0
100
AcDbPolyline
 90
    2
 70
    0
 43
0
 10
16.67520921255917
 20
16.0286428404612
 10
13.67522006400361
 20
16.0286428404612
  0
LWPOLYLINE
  5
13D
100
AcDbEntity
  8
ADD your design here
  6
ByLayer
 62
  256
370
    0
100
AcDbPolyline
 90
    2
 70
    0
 43
0
 10
21.67520921255917
 20
31.02910534756181
 10
18.67522006400361
 20
31.02910534756181
  0
LWPOLYLINE
  5
13E
100
AcDbEntity
  8
ADD your design here
  6
ByLayer
 62
  256
370
    0
100
AcDbPolyline
 90
    2
 70
    0
 43
0
 10
21.67520921255917
 20
56.02912975537429
 10
18.67522006400361
 20
56.02912975537429
  0
LINE
  5
13F
100
AcDbEntity
  8
ADD your design here
  6
ByLayer
 62
  256
370
   -1
100
AcDbLine
 10
13.67522006400361
 20
66.05903616563474
 11
13.67522006400361
 21
56.08895750060005
  0
LINE
  5
140
100
AcDbEntity
  8
ADD your design here
  6
ByLayer
 62
  256
370
   -1
100
AcDbLine
 10
18.67522006400361
 20
66.05903616563474
 11
18.67522006400361
 21
56.02912975537429
  0
LINE
  5
141
100
AcDbEntity
  8
ADD your design here
  6
ByLayer
 62
  256
370
   -1
100
AcDbLine
 10
16.67520921255917
 20
56.08895750060005
 11
16.67520921255917
 21
41.02918401259645
  0
LINE
  5
142
100
AcDbEntity
  8
ADD your design here
  6
ByLayer
 62
  256
370
   -1
100
AcDbLine
 10
13.67522006400361
 20
41.02918401259645
 11
13.67522006400361
 21
31.08910534756178
  0
LINE
  5
143
100
AcDbEntity
  8
ADD your design here
  6
ByLayer
 62
  256
370
   -1
100
AcDbLine
 10
16.67520921255917
 20
31.08910534756178
 11
16.67520921255917
 21
16.0286428404612
  0
LINE
  5
144
100
AcDbEntity
  8
ADD your design here
  6
ByLayer
 62
  256
370
   -1
100
AcDbLine
 10
13.67522006400361
 20
16.0286428404612
 11
13.67522006400361
 21
6.058908684975025
  0
LINE
  5
145
100
AcDbEntity
  8
ADD your design here
  6
ByLayer
 62
  256
370
   -1
100
AcDbLine
 10
18.67522006400361
 20
6.059080939749309
 11
18.67522006400361
 21
16.08915960478402
  0
LINE
  5
146
100
AcDbEntity
  8
ADD your design here
  6
ByLayer
 62
  256
370
   -1
100
AcDbLine
 10
21.67520921255917
 20
16.08915960478402
 11
21.67520921255917
 21
31.02910534756181
  0
LINE
  5
147
100
AcDbEntity
  8
ADD your design here
  6
ByLayer
 62
  256
370
   -1
100
AcDbLine
 10
18.67522006400361
 20
31.02910534756181
 11
18.67522006400361
 21
41.0891840125965
  0
LINE
  5
148
100
AcDbEntity
  8
ADD your design here
  6
ByLayer
 62
  256
370
   -1
100
AcDbLine
 10
21.67520921255917
 20
41.0891840125965
 11
21.67520921255917
 21
56.02912975537429
  0
CIRCLE
  5
149
100
AcDbEntity
  8
ADD your design here
  6
ByLayer
 62
  256
370
   -1
100
AcDbCircle
 10
104.9259147131185
 20
58.56945062142535
 40
5
  0
CIRCLE
  5
14A
100
AcDbEntity
  8
ADD your design here
  6
ByLayer
 62
  256
370
   -1
100
AcDbCircle
 10
104.9259147131185
 20
58.56945062142535
 40
10
  0
CIRCLE
  5
14B
100
AcDbEntity
  8
ADD your design here
  6
ByLayer
 62
  256
370
   -1
100
AcDbCircle
 10
126.8762790715747
 20
64.95276320774614
 40
5
  0
CIRCLE
  5
14C
100
AcDbEntity
  8
ADD your design here
  6
ByLayer
 62
  256
370
   -1
100
AcDbCircle
 10
140.8762790715747
 20
64.95276320774614
 40
5.01
  0
CIRCLE
  5
14D
100
AcDbEntity
  8
ADD your design here
  6
ByLayer
 62
  256
370
   -1
100
AcDbCircle
 10
154.8762790715747
 20
64.95276320774614
 40
5.02
  0
CIRCLE
  5
14E
100
AcDbEntity
  8
ADD your design here
  6
ByLayer
 62
  256
370
   -1
100
AcDbCircle
 10
126.8762790715747
 20
50.95276320774614
 40
5.03
  0
CIRCLE
  5
14F
100
AcDbEntity
  8
ADD your design here
  6
ByLayer
 62
  256
370
   -1
100
AcDbCircle
 10
140.8762790715747
 20
50.95276320774614
 40
5.04
  0
CIRCLE
  5
150
100
AcDbEntity
  8
ADD your design here
  6
ByLayer
 62
  256
370
   -1
100
AcDbCircle
 10
154.8762790715747
 20
50.95276320774614
 40
5.05
  0
CIRCLE
  5
151
100
AcDbEntity
  8
ADD your design here
  6
ByLayer
 62
  256
370
   -1
100
AcDbCircle
 10
98.87627907157466
 20
36.95276320774614
 40
5.06
  0
CIRCLE
  5
152
100
AcDbEntity
  8
ADD your design here
  6
ByLayer
 62
  256
370
   -1
100
AcDbCircle
 10
112.8762790715747
 20
36.95276320774614
 40
5.07
  0
CIRCLE
  5
153
100
AcDbEntity
  8
ADD your design here
  6
ByLayer
 62
  256
370
   -1
100
AcDbCircle
 10
126.8762790715747
 20
36.95276320774614
 40
5.08
  0
CIRCLE
  5
154
100
AcDbEntity
  8
ADD your design here
  6
ByLayer
 62
  256
370
   -1
100
AcDbCircle
 10
140.8762790715747
 20
36.95276320774614
 40
5.09
  0
CIRCLE
  5
155
100
AcDbEntity
  8
ADD your design here
  6
ByLayer
 62
  256
370
   -1
100
AcDbCircle
 10
154.8762790715747
 20
36.95276320774614
 40
5.1
  0
CIRCLE
  5
156
100
AcDbEntity
  8
ADD your design here
  6
ByLayer
 62
  256
370
   -1
100
AcDbCircle
 10
98.87627907157466
 20
22.95276320774614
 40
5.11
  0
CIRCLE
  5
157
100
AcDbEntity
  8
ADD your design here
  6
ByLayer
 62
  256
370
   -1
100
AcDbCircle
 10
112.8762790715747
 20
22.95276320774614
 40
5.12
  0
CIRCLE
  5
158
100
AcDbEntity
  8
ADD your design here
  6
ByLayer
 62
  256
370
   -1
100
AcDbCircle
 10
126.8762790715747
 20
22.95276320774614
 40
5.13
  0
CIRCLE
  5
159
100
AcDbEntity
  8
ADD your design here
  6
ByLayer
 62
  256
370
   -1
100
AcDbCircle
 10
140.8762790715747
 20
22.95276320774614
 40
5.14
  0
CIRCLE
  5
15A
100
AcDbEntity
  8
ADD your design here
  6
ByLayer
 62
  256
370
   -1
100
AcDbCircle
 10
154.8762790715747
 20
22.95276320774614
 40
5.15
  0
CIRCLE
  5
15B
100
AcDbEntity
  8
ADD your design here
  6
ByLayer
 62
  256
370
   -1
100
AcDbCircle
 10
98.87627907157466
 20
8.952763207746145
 40
5.16
  0
CIRCLE
  5
15C
100
AcDbEntity
  8
ADD your design here
  6
ByLayer
 62
  256
370
   -1
100
AcDbCircle
 10
112.8762790715747
 20
8.952763207746145
 40
5.17
  0
CIRCLE
  5
15D
100
AcDbEntity
  8
ADD your design here
  6
ByLayer
 62
  256
370
   -1
100
AcDbCircle
 10
126.8762790715747
 20
8.952763207746145
 40
5.18
  0
CIRCLE
  5
15E
100
AcDbEntity
  8
ADD your design here
  6
ByLayer
 62
  256
370
   -1
100
AcDbCircle
 10
140.8762790715747
 20
8.952763207746145
 40
5.19
  0
CIRCLE
  5
15F
100
AcDbEntity
  8
ADD your design here
  6
ByLayer
 62
  256
370
   -1
100
AcDbCircle
 10
154.8762790715747
 20
8.952763207746145
 40
5.2
  0
ENDSEC
  0
SECTION
  2
OBJECTS
  0
DICTIONARY
  5
C
330
0
100
AcDbDictionary
281
    1
  3
ACAD_GROUP
350
D
  0
DICTIONARY
  5
D
330
C
100
AcDbDictionary
281
    1
  0
ENDSEC
  0
EOF
